<svg xmlns="http://www.w3.org/2000/svg" xmlns:xlink="http://www.w3.org/1999/xlink" width="1113.887" height="612.244" data-name="Layer 1" viewBox="0 0 1113.887 612.244"><title>wordpress</title><rect width="452" height="93" x="476.902" y="96.25" fill="none" stroke="#3f3d56" stroke-miterlimit="10"/><path fill="none" stroke="#3f3d56" stroke-miterlimit="10" d="M250.22415,372.229C263.11336,352.08825,287.517,338.5,315.5,338.5c41.42136,0,75,29.77306,75,66.5,0,23.48168-13.72626,44.12077-34.45252,55.9533" transform="translate(-43.05632 -143.875)"/><rect width="452" height="93" x="444.902" y="114.25" fill="#6c63ff"/><circle cx="159.171" cy="18.5" r="7" fill="#6c63ff"/><circle cx="183.171" cy="18.5" r="7" fill="#6c63ff"/><circle cx="207.171" cy="18.5" r="7" fill="#6c63ff"/><rect width="840" height="546" x="140.171" y=".5" fill="none" stroke="#3f3d56" stroke-miterlimit="10"/><line x1="140.171" x2="980.171" y1="30.835" y2="30.835" fill="none" stroke="#3f3d56" stroke-miterlimit="10"/><circle cx="161.171" cy="15.5" r="7" fill="none" stroke="#3f3d56" stroke-miterlimit="10"/><circle cx="185.171" cy="15.5" r="7" fill="none" stroke="#3f3d56" stroke-miterlimit="10"/><circle cx="209.171" cy="15.5" r="7" fill="none" stroke="#3f3d56" stroke-miterlimit="10"/><path fill="#57b894" d="M75.27267,348.42356a21.61922,21.61922,0,1,0-26.639-31.90264l8.0969,7.65194L46.32837,320.94a21.53767,21.53767,0,0,0,.42814,16.46985,21.19971,21.19971,0,0,0,3.15322,5.07973A21.6151,21.6151,0,0,0,75.27267,348.42356Z" transform="translate(-43.05632 -143.875)"/><path fill="none" stroke="#3f3d56" stroke-miterlimit="10" d="M183.44639,423.47872c-7.89466-5.53929-7.89618-17.16828-5.93507-26.61092s4.95464-19.74456.50306-28.29983c-6.3977-12.29544-23.21458-13.035-37.01248-14.349a130.15616,130.15616,0,0,1-30.04827-6.5136c-3.8984-1.344-7.80228-2.91353-10.99464-5.52363-4.59737-3.75884-7.29414-9.30238-9.81237-14.68041Q77.56317,300.62766,66.25742,273.18" transform="translate(-43.05632 -143.875)"/><path fill="none" stroke="#3f3d56" stroke-miterlimit="10" d="M73.9308,345.7404a21.61922,21.61922,0,1,0-26.639-31.90265l8.0969,7.65194L44.9865,318.25685a21.53767,21.53767,0,0,0,.42814,16.46985,21.19919,21.19919,0,0,0,3.15322,5.07973A21.61509,21.61509,0,0,0,73.9308,345.7404Z" transform="translate(-43.05632 -143.875)"/><path fill="#57b894" d="M47.58089,285.78442a21.594,21.594,0,0,1,1.72991-20.66591l8.61043,6.39795-5.3141-10.29993a21.61655,21.61655,0,1,1-5.02624,24.56789Z" transform="translate(-43.05632 -143.875)"/><path fill="none" stroke="#3f3d56" stroke-miterlimit="10" d="M45.79173,282.20686A21.594,21.594,0,0,1,47.52164,261.541l8.61043,6.398L50.818,257.639a21.61656,21.61656,0,1,1-5.02623,24.56789Z" transform="translate(-43.05632 -143.875)"/><path fill="#57b894" d="M138.41288,357.002a21.61661,21.61661,0,0,0-12.83334-40.99231l4.08388,7.915-8.70985-6.47535a.37577.37577,0,0,0-.05415.023A21.61777,21.61777,0,1,0,138.41288,357.002Z" transform="translate(-43.05632 -143.875)"/><path fill="none" stroke="#3f3d56" stroke-miterlimit="10" d="M136.47525,353.49867a21.61661,21.61661,0,0,0-12.83334-40.9923l4.08388,7.915-8.70986-6.47536a.378.378,0,0,0-.05415.02306,21.61777,21.61777,0,1,0,17.51347,39.52961Z" transform="translate(-43.05632 -143.875)"/><path fill="#57b894" d="M147.04276,398.48755a21.60757,21.60757,0,1,0-8.71949-15.097l16.98867,3.78678-14.82289,3.56438A21.41544,21.41544,0,0,0,147.04276,398.48755Z" transform="translate(-43.05632 -143.875)"/><path fill="none" stroke="#3f3d56" stroke-miterlimit="10" d="M145.70089,395.80438a21.60757,21.60757,0,1,0-8.71949-15.097l16.98867,3.78678-14.82289,3.56438A21.41544,21.41544,0,0,0,145.70089,395.80438Z" transform="translate(-43.05632 -143.875)"/><path fill="#57b894" d="M1084.61287,602.26517a20.81252,20.81252,0,1,0,8.3387-39.13277l-.98562,10.67947-3.7314-9.80018a20.73405,20.73405,0,0,0-12.22123,10.10949,20.40828,20.40828,0,0,0-1.97438,5.40651A20.80854,20.80854,0,0,0,1084.61287,602.26517Z" transform="translate(-43.05632 -143.875)"/><path fill="none" stroke="#3f3d56" stroke-miterlimit="10" d="M1092.0289,728.797c-.49451-9.27109,8.31332-16.18134,16.63109-20.306s17.89981-7.97772,21.73547-16.43263c5.51252-12.15118-3.91862-25.32906-11.121-36.56135a125.3002,125.3002,0,0,1-12.91856-26.63091c-1.29809-3.75147-2.42859-7.64108-2.34816-11.61.11584-5.71565,2.71274-11.052,5.29035-16.15471q12.88015-25.49811,26.95418-50.36938" transform="translate(-43.05632 -143.875)"/><path fill="none" stroke="#3f3d56" stroke-miterlimit="10" d="M1085.84808,599.65459a20.81252,20.81252,0,1,0,8.33869-39.13278l-.98561,10.67948-3.7314-9.80018a20.734,20.734,0,0,0-12.22123,10.10949,20.40859,20.40859,0,0,0-1.97439,5.4065A20.80855,20.80855,0,0,0,1085.84808,599.65459Z" transform="translate(-43.05632 -143.875)"/><path fill="#57b894" d="M1115.60841,544.07357a20.78822,20.78822,0,0,1,16.68183-10.96779l.26936,10.32343,4.64475-10.1448a20.81,20.81,0,1,1-21.59594,10.78916Z" transform="translate(-43.05632 -143.875)"/><path fill="none" stroke="#3f3d56" stroke-miterlimit="10" d="M1117.25535,540.59279a20.78824,20.78824,0,0,1,16.68183-10.96779l.26936,10.32344,4.64475-10.14481a20.81,20.81,0,1,1-21.59594,10.78916Z" transform="translate(-43.05632 -143.875)"/><path fill="#57b894" d="M1115.62817,655.18935a20.81,20.81,0,0,0,23.42627-34.07564l-3.56911,7.796-.2698-10.44473a.36282.36282,0,0,0-.04963-.02732,20.81113,20.81113,0,1,0-19.53773,36.75172Z" transform="translate(-43.05632 -143.875)"/><path fill="none" stroke="#3f3d56" stroke-miterlimit="10" d="M1117.13066,651.64023a20.81,20.81,0,0,0,23.42627-34.07565l-3.56912,7.796-.26979-10.44474a.36409.36409,0,0,0-.04964-.02732,20.81113,20.81113,0,1,0-19.53772,36.75173Z" transform="translate(-43.05632 -143.875)"/><path fill="#57b894" d="M1089.33088,686.374a20.80131,20.80131,0,1,0,6.25521-15.57438l7.225,15.11843-11.50663-9.11037A20.61639,20.61639,0,0,0,1089.33088,686.374Z" transform="translate(-43.05632 -143.875)"/><path fill="none" stroke="#3f3d56" stroke-miterlimit="10" d="M1090.56608,683.76343a20.80131,20.80131,0,1,0,6.25521-15.57438l7.225,15.11842-11.50663-9.11037A20.61655,20.61655,0,0,0,1090.56608,683.76343Z" transform="translate(-43.05632 -143.875)"/><path fill="#57b894" d="M158.27267,262.42356a21.61922,21.61922,0,1,0-26.639-31.90264l8.0969,7.65194L129.32837,234.94a21.53767,21.53767,0,0,0,.42814,16.46985,21.19971,21.19971,0,0,0,3.15322,5.07973A21.6151,21.6151,0,0,0,158.27267,262.42356Z" transform="translate(-43.05632 -143.875)"/><path fill="none" stroke="#3f3d56" stroke-miterlimit="10" d="M182.959,256.18177c-4.59737-3.75884-7.29414-9.30238-9.81237-14.68041q-12.58345-26.8737-23.8892-54.32135" transform="translate(-43.05632 -143.875)"/><path fill="none" stroke="#3f3d56" stroke-miterlimit="10" d="M156.9308,259.7404a21.61922,21.61922,0,1,0-26.639-31.90265l8.0969,7.65194-10.40218-3.23284a21.53767,21.53767,0,0,0,.42814,16.46985,21.19919,21.19919,0,0,0,3.15322,5.07973A21.61509,21.61509,0,0,0,156.9308,259.7404Z" transform="translate(-43.05632 -143.875)"/><path fill="#57b894" d="M130.58089,199.78442a21.594,21.594,0,0,1,1.72991-20.66591l8.61043,6.398-5.3141-10.29993a21.61655,21.61655,0,1,1-5.02624,24.56789Z" transform="translate(-43.05632 -143.875)"/><path fill="none" stroke="#3f3d56" stroke-miterlimit="10" d="M128.79173,196.20686a21.594,21.594,0,0,1,1.72991-20.66591l8.61043,6.398L133.818,171.639a21.61656,21.61656,0,1,1-5.02623,24.56789Z" transform="translate(-43.05632 -143.875)"/><line x1="403.898" x2="403.898" y1="30.835" y2="547.276" fill="none" stroke="#3f3d56" stroke-miterlimit="10"/><rect width="147" height="20" x="498.402" y="284.75" fill="#f2f2f2"/><rect width="147" height="20" x="729.402" y="284.75" fill="#f2f2f2"/><rect width="147" height="20" x="506.402" y="274.75" fill="none" stroke="#3f3d56" stroke-miterlimit="10"/><rect width="147" height="20" x="498.402" y="439.75" fill="#f2f2f2"/><rect width="147" height="20" x="506.402" y="429.75" fill="none" stroke="#3f3d56" stroke-miterlimit="10"/><rect width="378" height="20" x="498.902" y="360.25" fill="#f2f2f2"/><rect width="378" height="20" x="506.902" y="352.25" fill="none" stroke="#3f3d56" stroke-miterlimit="10"/><rect width="147" height="20" x="737.402" y="274.75" fill="none" stroke="#3f3d56" stroke-miterlimit="10"/><path fill="#3f3d56" d="M974.12309,360.06179a20.52086,20.52086,0,0,0,1.20129,3.14327,52.96337,52.96337,0,0,1,.65343,39.86623c3.58806-.22468,7.17109.35557,10.75575.63294s7.295.23158,10.62749-1.17133,6.23339-4.40851,6.71888-8.11679c.65549-5.00687-2.98836-9.37369-6.18738-13.17378-3.25983-3.87234-6.40947-8.14314-7.37416-13.19348-1.06041-5.55146.44893-12.06057-3.058-16.38555a3.38957,3.38957,0,0,0-1.16552-.9944c-1.88372-.86332-6.788-.83559-8.68394.23344C974.69249,352.5479,973.40582,356.88787,974.12309,360.06179Z" transform="translate(-43.05632 -143.875)"/><path fill="#3f3d56" d="M1073.42743,722.20289a25.20426,25.20426,0,0,1-1.17772,4.90714s-3.63344,8.36175-18.57731,6.10666c-9.76193-1.47433-9.69655-6.05-8.07825-9.59182a22.85,22.85,0,0,1,2.66512-4.14817c1.45254-1.96285,1.30857-9.45225,1.81893-16.283.506-6.83509,3.5942-7.184,3.5942-7.184l.18322,7.69c5.81876-7.63333,9.88839,1.30857,9.88839,1.30857s8.27437.172,7.26257-4.06964c-1.07779-4.51822-2.68694-11.67244-2.68694-11.67244s4.00424,1.85817,4.72831,3.16674c.72843,1.30857-.14395,18.83031-.79824,20.50093s0,6.1808.94655,7.48937A2.854,2.854,0,0,1,1073.42743,722.20289Z" transform="translate(-43.05632 -143.875)"/><path fill="#fbbebe" d="M1070.66634,700.48935a8.14784,8.14784,0,0,1-5.69664,7.76417,10.97309,10.97309,0,0,1-9.58305-1.46123,5.62468,5.62468,0,0,1-2.36854-5.27354l.23114-1.93232.83751-7.04445,1.15154-9.70523s12.38344-6.30731,11.559-3.92571c-.30968.88982.37511,4.894,1.35654,9.56128.69792,3.33686,1.54413,7.00957,2.29,10.124A8.06769,8.06769,0,0,1,1070.66634,700.48935Z" transform="translate(-43.05632 -143.875)"/><path d="M1052.25767,699.95721s10.723-12.595,19.50133,1.145l-1.47214,8.80255h-18.02919Z" opacity=".1" transform="translate(-43.05632 -143.875)"/><path fill="#3f3d56" d="M1052.25767,700.82959s10.723-12.595,19.50133,1.145l-1.47214,8.80255h-18.02919Z" transform="translate(-43.05632 -143.875)"/><circle cx="1023.14" cy="563.631" r="1.09" fill="#f2f2f2"/><circle cx="1009.201" cy="561.883" r="1.09" fill="#f2f2f2"/><circle cx="1019.379" cy="571.022" r="1.09" fill="#f2f2f2"/><circle cx="1009.862" cy="569.74" r="1.09" fill="#f2f2f2"/><circle cx="1021.487" cy="567.559" r="1.09" fill="#f2f2f2"/><circle cx="1009.201" cy="565.812" r="1.09" fill="#f2f2f2"/><circle cx="1018.289" cy="575.077" r="1.09" fill="#f2f2f2"/><circle cx="1009.862" cy="573.669" r="1.091" fill="#f2f2f2"/><path fill="#fbbebe" d="M980.43174,735.39764l-14.83046,5.01618s-7.85141-7.85142-5.67047-10.25046c.92909-1.02507,1.7404-4.42734,2.35981-7.99537.20063-1.12538.37948-2.27256.5365-3.363.51473-3.54622.81131-6.52538.81131-6.52538s17.2295-8.28761,14.39427,0a20.40919,20.40919,0,0,0-.81568,7.24947,48.10707,48.10707,0,0,0,.92036,7.25821A69.13914,69.13914,0,0,0,980.43174,735.39764Z" transform="translate(-43.05632 -143.875)"/><path d="M980.43174,735.39764l-14.83046,5.01618s-7.85141-7.85142-5.67047-10.25046c.92909-1.02507,1.7404-4.42734,2.35981-7.99537a15.499,15.499,0,0,1,1.73166,4.833c12.81089,7.03574,13.029,2.83523,13.029,2.83523a7.787,7.787,0,0,1,1.08611-3.049A69.13914,69.13914,0,0,0,980.43174,735.39764Z" opacity=".1" transform="translate(-43.05632 -143.875)"/><path fill="#3f3d56" d="M983.70316,746.84762s-2.56479,1.90615-10.0847,2.18095a39.65312,39.65312,0,0,0-5.86591.66064,73.28862,73.28862,0,0,1-24.05818.64958,52.18363,52.18363,0,0,1-6.11829-1.20117c-7.74237-2.12861-1.8538-7.03138-1.8538-7.03138s.3708-.32278,1.012-.807c1.64007-1.23006,5.04232-3.49822,8.53184-4.04783,4.85043-.76333,9.32138-9.37808,9.32138-9.37808l3.05333-5.50908c4.74138-4.0871,6.38146,5.50908,6.38146,5.50908,12.81089,7.03574,13.029,2.83523,13.029,2.83523.711-3.76432,2.01956-3.76432,2.01956-3.76432s3.19289,8.59729,4.34885,10.74336a2.12653,2.12653,0,0,0,.28348.43619C984.4665,738.88715,983.70316,746.84762,983.70316,746.84762Z" transform="translate(-43.05632 -143.875)"/><circle cx="920.909" cy="587.597" r="1.09" fill="#f2f2f2"/><circle cx="914.664" cy="590.65" r="1.09" fill="#f2f2f2"/><circle cx="918.021" cy="589.086" r="1.09" fill="#f2f2f2"/><circle cx="911.15" cy="592.45" r="1.09" fill="#f2f2f2"/><path d="M978.0327,712.27957a20.40919,20.40919,0,0,0-.81568,7.24947c-3.869-1.29983-10.20685-1.073-14.3899-.72409.51473-3.54622.81131-6.52538.81131-6.52538S980.86793,703.992,978.0327,712.27957Z" opacity=".1" transform="translate(-43.05632 -143.875)"/><path d="M1068.15388,688.47232c-5.36076,5.25608-10.486,5.58322-14.06712,4.06966l1.15154-9.70523s12.38344-6.30731,11.559-3.92571C1066.48766,679.80086,1067.17245,683.80508,1068.15388,688.47232Z" opacity=".1" transform="translate(-43.05632 -143.875)"/><path fill="#3f3d56" d="M974.108,509.45127s-8.50669,4.79809-10.03335,14.17618-4.14381,21.3733-6.10666,23.55425-8.06951,9.16-5.67047,12.8676,2.83524,16.35712,2.83524,16.35712-.87238,11.34094,1.52666,15.04855,4.3619,27.26187-.87238,34.24091c0,0-1.74476,16.139-1.09047,17.66569s-2.83524,5.45237-1.74476,8.7238,6.32475,63.46563,5.67047,65.86467c0,0,16.57521-2.399,20.93711,1.52666,0,0,.87238-6.54284,0-11.12284s.65428-22.68187,2.61714-27.26187,2.399-22.02758,1.74476-23.77234c0,0,3.48952-15.48475,2.181-18.53807s5.67047-31.18758,5.67047-31.18758,3.48952-6.76094,2.61714-7.63332c0,0,5.67046-3.70762,5.01618-6.54285s5.23428-6.10666,5.23428-6.10666,5.23428,12.8676,6.979,14.83046,1.81321,14.61236,3.95993,17.2295,4.982,16.35712,7.81719,20.06473,14.17617,13.52189,15.92093,24.64473c0,0,10.25047,15.92093,9.81428,20.93711s11.559,14.17617,23.11806-2.83523a15.11356,15.11356,0,0,1-6.10666-12.43141c0-8.50571-9.16-35.76757-9.16-35.76757s-5.23427-7.63333-3.27142-11.34094.2181-14.61236.2181-14.61236l4.1438-6.76094s.65428-6.54285,1.30857-13.3038-3.92571-14.17617-1.74476-17.44759-.87238-19.61656-.87238-19.61656-2.71429-28.17483-6.76094-29.891S974.108,509.45127,974.108,509.45127Z" transform="translate(-43.05632 -143.875)"/><path fill="#fbbebe" d="M993.97982,469.97609s-4.47968.51033-9.91895,1.025c-7.86888.74152-17.74859,1.49176-18.92634.71972-1.989-1.30857,0-17.88379,0-17.88379s.68485-18.10188.03056-30.75138c-.53214-10.26356,6.26368-17.80091,8.84158-20.27847.60195-.57577.9727-.87674.9727-.87674l2.18095,1.74476,12.43141,21.15521Z" transform="translate(-43.05632 -143.875)"/><path fill="#fbbebe" d="M1042.5888,400.4038l-12.21332,7.41523-20.06473,15.26665s-20.719-10.90475-15.48474-17.2295a9.80613,9.80613,0,0,0,1.91488-4.279c1.57463-7.28437-1.91488-17.74856-1.91488-17.74856s27.29679-36.86241,25.7352-8.28761c-.62809,11.48052,2.80467,17.74857,7.13606,21.14211C1034.14853,401.73418,1042.5888,400.4038,1042.5888,400.4038Z" transform="translate(-43.05632 -143.875)"/><path d="M1042.5888,400.4038l-12.21332,7.41523-20.06473,15.26665s-20.719-10.90475-15.48474-17.2295a9.80613,9.80613,0,0,0,1.91488-4.279c1.57463-7.28437-1.91488-17.74856-1.91488-17.74856s27.29679-36.86241,25.7352-8.28761c-.62809,11.48052,2.80467,17.74857,7.13606,21.14211C1034.14853,401.73418,1042.5888,400.4038,1042.5888,400.4038Z" opacity=".1" transform="translate(-43.05632 -143.875)"/><ellipse cx="962.061" cy="223.748" opacity=".1" rx="25.258" ry="26.76"/><ellipse cx="962.061" cy="222.876" fill="#fbbebe" rx="25.258" ry="26.76"/><path d="M1042.5888,400.4038l-12.21332,7.41523-20.06473,15.26665s-20.719-10.90475-15.48474-17.2295a9.80613,9.80613,0,0,0,1.91488-4.279c22.85636,19.54131,29.80047-.68482,30.95638-4.89406C1034.14853,401.73418,1042.5888,400.4038,1042.5888,400.4038Z" opacity=".1" transform="translate(-43.05632 -143.875)"/><path d="M993.97982,469.97609s-4.47968.51033-9.91895,1.025c-.21373-4.69341-.92477-10.00184-.7939-13.23836.2181-5.45237.2181-6.10666-1.52666-9.16s-1.52667-5.45238-1.30857-9.37809c.20936-3.76-.78516-4.51892-4.3226-10.52526-.15271-.26173-.30973-.53217-.47549-.81567-1.736-2.99226-2.23329-8.40539-2.2507-13.51752a.12429.12429,0,0,0,0-.05671c-.00437-1.217.01741-2.41651.061-3.55933.00437-.048.00437-.09594.00437-.14392.12651-3.45464.41-6.39892.55833-7.79908.60195-.57577.9727-.87674.9727-.87674l2.18095,1.74476,12.43141,21.15521Z" opacity=".1" transform="translate(-43.05632 -143.875)"/><path fill="#55536e" d="M1058.458,403.625c-.01744-.00873,2.634,1.99562,2.61653,1.99128-7.895-3.40664-12.37471,13.753-13.57423,19.15308-.22246.99453-.33151,1.58774-.33151,1.58774s.13961,1.44815.314,3.75122c.58889,7.71184,1.60083,24.98061-.75024,29.18112a6.51339,6.51339,0,0,0-.5627,1.40015c-.7415,2.55173-.65428,6.38583-.27038,10.11091a101.26535,101.26535,0,0,0,1.92356,11.38891s5.23428,13.30379,3.05333,22.02759a32.36341,32.36341,0,0,0-.63682,9.89278,58.504,58.504,0,0,0,1.38268,9.02477c.205.868.34461,1.36528.34461,1.36528q-4.93334,1.688-9.64415,2.80033a93.54989,93.54989,0,0,1-18.65148,2.52553c-29.4908.93782-49.12807-13.19475-53.76477-17.04628-.36639-.30534-.64119-.54524-.81568-.711-3.05333-2.83523,2.83524-5.01618,2.181-6.979s2.98358-6.32476,2.98358-6.32476-.80263-7.19713,2.4688-8.7238,5.67046-6.76094,7.51554-11.12284c1.84071-4.3619-.31841-15.70283-.10032-21.15521s.2181-6.10666-1.52666-9.16-1.52667-5.45238-1.30857-9.37809c.20936-3.76-.78516-4.51892-4.3226-10.52526-.15271-.26173-.30974-.53217-.47549-.81567-1.736-2.99226.96938-8.14664.952-13.25877.00436-.01746,1.00436.01744,1,0-.00437-1.217-2.04361-2.85718-2-4,.00436-.048-1-.952-1-1a32.39519,32.39519,0,0,0-.47863-7.69453c17.44759-8.94189,21.5914.37511,21.5914.37511,25.5171,21.96215,31.30972-5.48291,31.30972-5.48291,13.88827-4.74574,32.1559,8.039,33.1984,8.78051C1061.10943,405.625,1058.458,403.625,1058.458,403.625Z" transform="translate(-43.05632 -143.875)"/><path fill="#fbbebe" d="M964.838,467.75249s-2.183,11.64719,4.13051,18.14557a7.1,7.1,0,0,0,8.21306,1.41145c2.09688-1.031,4.44194-2.56084,5.32212-4.52342C984.23841,478.918,978.796,460.01012,964.838,467.75249Z" transform="translate(-43.05632 -143.875)"/><path d="M1046.7326,459.28944a6.51339,6.51339,0,0,0-.5627,1.40015l.99889-25.49964.314-5.08163C1048.07173,437.82016,1049.08367,455.08893,1046.7326,459.28944Z" opacity=".1" transform="translate(-43.05632 -143.875)"/><path d="M1050.87641,504.217a32.36341,32.36341,0,0,0-.63682,9.89278c-1.41326,2.56043-2.62151,4.73265-3.40667,6.1459-.615,1.09921-.9727,1.736-.9727,1.736a41.19653,41.19653,0,0,0-3.53749,5.30843,10.2626,10.2626,0,0,0-1.47869,4.31392c0,3.3543-3.38047,25.709-19.41045,20.14761-10.35078-3.58986-3.74249-14.59055,2.23766-21.936a82.14651,82.14651,0,0,1,6.37709-6.96158s1.84944-2.35543,3.62476-4.81989a29.27006,29.27006,0,0,0,3.13618-4.99438c.76333-2.18095,5.797-11.77713,5.797-11.77713s4.99872-10.5776,3.90825-15.48474c-.61063-2.748-.67612-9.53947-.615-14.98747a101.26535,101.26535,0,0,0,1.92356,11.38891S1053.05736,495.4932,1050.87641,504.217Z" opacity=".1" transform="translate(-43.05632 -143.875)"/><path fill="#fbbebe" d="M1061.12687,405.63808s7.85142,5.45238,7.63332,19.62855-2.83523,38.71185-2.83523,38.71185l-1.63571,15.26664s-2.07191,6.21571-1.74476,8.06952S1045.424,520.247,1045.424,520.247s-5.01618,6.27168-5.01618,9.62417-3.38047,25.70721-19.41045,20.14579,8.61475-28.89758,8.61475-28.89758,5.99761-7.63332,6.76094-9.81427S1042.172,499.528,1042.172,499.528s4.99684-10.5776,3.90637-15.48474-.43619-22.723-.43619-22.723l1.09047-27.875.43619-7.08809S1051.20355,402.80285,1061.12687,405.63808Z" transform="translate(-43.05632 -143.875)"/><path fill="#6c63ff" d="M977.84205,457.6742l11.9011-4.323a5.63319,5.63319,0,0,1,5.79116,1.19929l15.79421,14.91676s.87238,2.39429-.29079,2.28762-18.17458-17.11807-18.17458-17.11807l-16.866,5.67046h0A2.80135,2.80135,0,0,1,977.84205,457.6742Z" transform="translate(-43.05632 -143.875)"/><polygon fill="#4b4b5b" points="951.624 333.807 967.981 327.88 949.807 310.762 932.941 316.432 951.624 333.807"/><circle cx="927.052" cy="381.352" r="1.454" fill="#f2f2f2"/><circle cx="917.165" cy="400.034" r="1.454" fill="#f2f2f2"/><circle cx="996.146" cy="406.826" r="1.454" fill="#f2f2f2"/><circle cx="1004.37" cy="433.219" r="1.454" fill="#f2f2f2"/><circle cx="1001.167" cy="425.791" r="1.454" fill="#f2f2f2"/><circle cx="998.387" cy="416.308" r="1.454" fill="#f2f2f2"/><circle cx="921.781" cy="390.196" r="1.454" fill="#f2f2f2"/><circle cx="911.398" cy="409.734" r="1.454" fill="#f2f2f2"/><path fill="#6c63ff" d="M1061.07889,405.60318l-.00436.0131c-7.895-3.40664-12.37471,13.753-13.57423,19.15308l-12.40085-17.74856s-5.086,8.13929-21.51728,9.37808c-16.43124,1.23442-20.42675-12.50556-20.42675-12.50556-2.25512-.17448-12.46629,18.20656-16.1739,24.80612-.15271-.26173-.30974-.53217-.47549-.81567-1.736-2.99226-2.23329-8.40539-2.2507-13.51752a.12429.12429,0,0,0,0-.05671c.013-1.18645.03488-2.37724.061-3.55933.00437-.048.00437-.09594.00437-.14392.17885-4.84172.65865-8.67582.65865-8.67582,17.44759-8.94189,21.5914.37511,21.5914.37511,25.5171,21.96215,31.30972-5.48291,31.30972-5.48291C1041.76876,392.07693,1060.03639,404.86165,1061.07889,405.60318Z" transform="translate(-43.05632 -143.875)"/><path d="M964.29271,565.06548c.2181.54524,18.53807,21.70045,25.299,22.79093S964.29271,565.06548,964.29271,565.06548Z" opacity=".1" transform="translate(-43.05632 -143.875)"/><path d="M977.41051,532.61723s.186,14.91558-4.394,18.28407S977.41051,532.61723,977.41051,532.61723Z" opacity=".1" transform="translate(-43.05632 -143.875)"/><path d="M985.88411,537.91266s-.43619,17.55665,6.10666,21.70045C991.99077,559.61311,979.99555,547.945,985.88411,537.91266Z" opacity=".1" transform="translate(-43.05632 -143.875)"/><path d="M977.8146,628.09492s-12.21332,9.05094-15.59379,9.70523S977.8146,628.09492,977.8146,628.09492Z" opacity=".1" transform="translate(-43.05632 -143.875)"/><path d="M974.7656,351.1462c-2.63128,2.21724-1.68359,6.81984,1.00475,8.96755s6.36411,2.47745,9.80386,2.56616c6.62084.17075,13.3493-.21329,19.769,1.41531a16.02656,16.02656,0,0,1,7.58332,3.88476,17.06661,17.06661,0,0,1,3.94125,7.84032,42.93649,42.93649,0,0,1,1.3482,13.14281c-.15642,2.97384-.62194,5.9661-.19513,8.9133a28.50494,28.50494,0,0,0,2.78165,7.92946,329.46177,329.46177,0,0,0,16.84757,31.2541,5.81707,5.81707,0,0,0,2.195,2.40209c1.575.76033,3.42668-.0105,4.99967-.77495a37.53645,37.53645,0,0,1-1.54277-9.47076,4.23362,4.23362,0,0,0,4.475-1.56345,12.41834,12.41834,0,0,0,2.03861-4.58284l2.93454-10.11141c.90744-3.12675,2.25325-6.71538,5.37618-7.63591a19.4711,19.4711,0,0,0,3.29794-.76858,4.222,4.222,0,0,0,2.0369-4.15955,8.98407,8.98407,0,0,0-1.969-4.44041c-4.415-5.94025-11.77726-9.463-15.22357-16.013-2.95959-5.62487-2.44562-12.39362-1.46922-18.67415s2.3348-12.73739.83256-18.91328a25.05861,25.05861,0,0,0-9.72562-13.93155,39.2308,39.2308,0,0,0-15.90707-6.54037,15.882,15.882,0,0,0-8.04.05452c-1.983.67016-3.68141,1.99317-5.61693,2.79005-4.39726,1.81041-9.46615.72907-14.07978,1.88146a18.934,18.934,0,0,0-10.41411,7.52417,39.942,39.942,0,0,0-5.4535,11.86079c-.84961,2.773.51305,3.88235-1.96436,5.39029" opacity=".1" transform="translate(-43.05632 -143.875)"/><path fill="#3f3d56" d="M975.20179,350.27382c-2.63128,2.21724-1.68359,6.81984,1.00475,8.96755s6.36411,2.47745,9.80386,2.56616c6.62084.17075,13.3493-.21329,19.769,1.41531a16.02656,16.02656,0,0,1,7.58332,3.88476,17.0665,17.0665,0,0,1,3.94124,7.84032,42.93618,42.93618,0,0,1,1.34821,13.14281c-.15642,2.97384-.62194,5.9661-.19513,8.9133a28.50494,28.50494,0,0,0,2.78165,7.92946,329.46177,329.46177,0,0,0,16.84757,31.2541,5.81707,5.81707,0,0,0,2.195,2.40209c1.575.76033,3.42668-.0105,4.99967-.77495a37.53645,37.53645,0,0,1-1.54277-9.47076,4.23362,4.23362,0,0,0,4.475-1.56345,12.41834,12.41834,0,0,0,2.03861-4.58284l2.93454-10.11141c.90744-3.12675,2.25325-6.71538,5.37618-7.63591a19.4711,19.4711,0,0,0,3.29794-.76858,4.222,4.222,0,0,0,2.0369-4.15955,8.98407,8.98407,0,0,0-1.969-4.44041c-4.415-5.94025-11.77726-9.463-15.22357-16.013-2.95959-5.62487-2.44562-12.39362-1.46922-18.67415s2.3348-12.73739.83256-18.91328a25.05861,25.05861,0,0,0-9.72562-13.93155,39.2308,39.2308,0,0,0-15.90707-6.54037,15.88208,15.88208,0,0,0-8.04.05452c-1.983.67016-3.68141,1.99317-5.61693,2.79-4.39726,1.81041-9.46615.72907-14.07978,1.88146a18.934,18.934,0,0,0-10.41411,7.52417,39.942,39.942,0,0,0-5.4535,11.86079c-.84961,2.773.51305,3.88235-1.96436,5.39029" transform="translate(-43.05632 -143.875)"/><path fill="#fbbebe" d="M972.47127,469.10371s19.95569-13.30379,25.62616-5.12523-17.55664,18.21093-17.55664,18.21093Z" transform="translate(-43.05632 -143.875)"/><path fill="#3f3d56" d="M978.99355,405.88405c-.07325,1.2825-.31892,2.85493-1.03355,3.08753,1.86215-.04435,3.69756,1.32583,5.54553.9164,1.37608-.30488,2.67021-1.63957,3.50053-3.61023a1.68346,1.68346,0,0,1,.46864-.77027c.19416-.11365.40484-.00029.59884.11421a58.21646,58.21646,0,0,1,10.03848,7.57769c1.02241.95219,2.15681,1.98367,3.277,1.4863a25.02257,25.02257,0,0,0-2.14165-10.49378,13.41106,13.41106,0,0,0-5.7166-6.25441,17.50943,17.50943,0,0,0-6.72279-1.74968,6.73487,6.73487,0,0,1-2.89766-.72075c-.99141-.58255-4.1566-4.365-4.86728-1.61053-.34311,1.32981.09911,4.16256.10954,5.63366C979.1677,401.62451,979.11483,403.76042,978.99355,405.88405Z" transform="translate(-43.05632 -143.875)"/><g opacity=".1"><path d="M1042.14843,436.40872a5.81721,5.81721,0,0,1-2.195-2.40208,329.45713,329.45713,0,0,1-16.84756-31.25411,28.50429,28.50429,0,0,1-2.78167-7.92945c-.4268-2.94721.03871-5.93946.19514-8.9133a42.93606,42.93606,0,0,0-1.34821-13.1428,17.06665,17.06665,0,0,0-3.94123-7.84034,16.02653,16.02653,0,0,0-7.58332-3.88474c-6.41969-1.6286-13.14816-1.24457-19.769-1.41533-3.43977-.0887-7.11554-.41846-9.80387-2.56615a6.7741,6.7741,0,0,1-2.23992-7.1847,4.331,4.331,0,0,1-.55751.445c-2.56679,2.23375-1.61785,6.78717,1.05267,8.92063,2.68833,2.14769,6.3641,2.47744,9.80387,2.56615,6.62082.17076,13.34929-.21327,19.769,1.41533a16.02653,16.02653,0,0,1,7.58332,3.88474,17.06665,17.06665,0,0,1,3.94123,7.84034,42.93606,42.93606,0,0,1,1.34821,13.1428c-.15643,2.97383-.62194,5.96609-.19514,8.9133a28.5044,28.5044,0,0,0,2.78167,7.92945,329.45713,329.45713,0,0,0,16.84756,31.25411,5.81721,5.81721,0,0,0,2.195,2.40208c1.575.76035,3.42669-.01049,4.99967-.77494-.13077-.43853-.25118-.88-.36577-1.32308A3.98394,3.98394,0,0,1,1042.14843,436.40872Z" transform="translate(-43.05632 -143.875)"/><path d="M974.98919,350.51078c.10561-.0643.195-.127.28715-.19.01712-.0149.03049-.03221.04792-.0469Z" transform="translate(-43.05632 -143.875)"/><path d="M977.0211,348.1398c-.09214.063-.18154.12574-.28715.19l.33507-.23694c-.01743.01469-.0308.032-.04792.04691,2.06887-1.41469.86384-2.54547,1.67722-5.20026a40.34835,40.34835,0,0,1,5.32256-11.66747,23.1343,23.1343,0,0,0-1.61383,1.98764,39.94176,39.94176,0,0,0-5.45349,11.86078,18.56117,18.56117,0,0,0-.42682,3.53473A4.17039,4.17039,0,0,1,977.0211,348.1398Z" transform="translate(-43.05632 -143.875)"/><path d="M1063.72766,401.50083a19.47132,19.47132,0,0,1-3.29794.76858,6.36053,6.36053,0,0,0-3.64851,3.22129,5.23728,5.23728,0,0,1,1.90375-1.04035,19.47108,19.47108,0,0,0,3.29794-.76857,3.71942,3.71942,0,0,0,1.80756-2.21615C1063.76916,401.47687,1063.7493,401.49005,1063.72766,401.50083Z" transform="translate(-43.05632 -143.875)"/><path d="M1045.60533,426.163q.03762,1.13406.14592,2.26425a4.91225,4.91225,0,0,0,2.58437-1.64676,7.28053,7.28053,0,0,0,.86679-1.34871A3.88793,3.88793,0,0,1,1045.60533,426.163Z" transform="translate(-43.05632 -143.875)"/></g><path d="M967.64432,466.50791s5.26224-2.13014,8.35282-1.657" opacity=".1" transform="translate(-43.05632 -143.875)"/><path d="M982.8158,490.477s2.67087,4.14381,16.17338,5.88857S982.8158,490.477,982.8158,490.477Z" opacity=".1" transform="translate(-43.05632 -143.875)"/><path d="M977.96,505.96176s12.14489,10.68665,31.6259,6.76094S977.96,505.96176,977.96,505.96176Z" opacity=".1" transform="translate(-43.05632 -143.875)"/><line x1="880.402" x2="1080.402" y1="611.75" y2="580.75" fill="none" stroke="#3f3d56" stroke-miterlimit="10"/><path fill="#6c63ff" d="M224.36673,418.99808c0,26.13213,17.16823,48.71308,42.0635,59.41566l-35.6018-86.28266a59.38557,59.38557,0,0,0-6.4617,26.867Zm125.01888-3.33137c0-8.15883-3.31321-13.80909-6.15494-18.207-3.78329-5.438-7.328-10.04309-7.328-15.48106,0-6.06857,5.202-11.71757,12.53142-11.71757.3309,0,.64476.03643.96855.05276a79.973,79.973,0,0,0-50.40123-17.33015c-26.074,0-49.01373,11.83314-62.3589,29.7562,1.751.04648,3.40268.07788,4.803.07788,7.80658,0,19.89066-.83786,19.89066-.83786,4.0233-.20978,4.49763,5.01715.48,5.438,0,0-4.0446.42082-8.54364.62934l27.17888,71.50757L296.786,416.2257,285.15637,388.046c-4.019-.20853-7.82646-.62934-7.82646-.62934-4.02188-.20853-3.55039-5.64775.47149-5.438,0,0,12.3255.83787,19.65918.83787,7.80516,0,19.89065-.83787,19.89065-.83787,4.02613-.20978,4.499,5.01715.47859,5.438,0,0-4.05169.42081-8.54222.62934l26.97154,70.96617,7.443-22.00436c3.228-9.13111,5.68345-15.68958,5.68345-21.3411Z" transform="translate(-43.05632 -143.875)"/><path fill="#6c63ff" d="M300.31082,424.7727l-22.393,57.55528a83.94664,83.94664,0,0,0,45.8681-1.05142,5.38774,5.38774,0,0,1-.53114-.90947ZM364.49036,387.325a44.91214,44.91214,0,0,1,.50273,6.78835c0,6.69916-1.41448,14.22991-5.67493,23.64617l-22.79772,58.3027c22.18847-11.445,37.11286-32.70821,37.11286-57.06411a59.7826,59.7826,0,0,0-9.143-31.67312Z" transform="translate(-43.05632 -143.875)"/></svg>