<svg xmlns="http://www.w3.org/2000/svg" width="47" height="48" fill="none" viewBox="0 0 47 48"><path fill="url(#paint0_linear_0_1899)" d="M27.3094 47.2028C26.0832 48.7471 23.5968 47.901 23.5673 45.9292L23.1353 17.0898H42.5268C46.0392 17.0898 47.998 21.1466 45.814 23.8974L27.3094 47.2028Z"/><path fill="url(#paint1_linear_0_1899)" fill-opacity=".2" d="M27.3094 47.2028C26.0832 48.7471 23.5968 47.901 23.5673 45.9292L23.1353 17.0898H42.5268C46.0392 17.0898 47.998 21.1466 45.814 23.8974L27.3094 47.2028Z"/><path fill="#3ECF8E" d="M19.4227 0.797559C20.649 -0.746829 23.1353 0.099384 23.1649 2.07117L23.3542 30.9105H4.20531C0.69287 30.9105 -1.26608 26.8537 0.918057 24.103L19.4227 0.797559Z"/><defs><linearGradient id="paint0_linear_0_1899" x1="23.135" x2="40.37" y1="23.484" y2="30.712" gradientUnits="userSpaceOnUse"><stop stop-color="#249361"/><stop offset="1" stop-color="#3ECF8E"/></linearGradient><linearGradient id="paint1_linear_0_1899" x1="15.494" x2="23.354" y1="13.023" y2="27.818" gradientUnits="userSpaceOnUse"><stop/><stop offset="1" stop-opacity="0"/></linearGradient></defs></svg>