<svg xmlns="http://www.w3.org/2000/svg" width="64" height="64" fill="none" viewBox="0 0 64 64"><g clip-path="url(#clip0_1338_2990)"><mask id="mask0_1338_2990" style="mask-type:alpha" width="64" height="64" x="0" y="0" maskUnits="userSpaceOnUse"><path fill="#000" d="M32 64C49.6731 64 64 49.6731 64 32C64 14.3269 49.6731 0 32 0C14.3269 0 0 14.3269 0 32C0 49.6731 14.3269 64 32 64Z"/></mask><g mask="url(#mask0_1338_2990)"><path fill="#000" d="M32 64C49.6731 64 64 49.6731 64 32C64 14.3269 49.6731 0 32 0C14.3269 0 0 14.3269 0 32C0 49.6731 14.3269 64 32 64Z"/><path fill="url(#paint0_linear_1338_2990)" d="M53.1586 56.0071L24.584 19.2H19.2002V44.7893H23.5073V24.6697L49.7776 58.6115C50.963 57.8183 52.0923 56.9475 53.1586 56.0071Z"/><path fill="url(#paint1_linear_1338_2990)" d="M45.1553 19.2H40.8887V44.8H45.1553V19.2Z"/></g></g><defs><linearGradient id="paint0_linear_1338_2990" x1="38.756" x2="51.378" y1="41.422" y2="57.067" gradientUnits="userSpaceOnUse"><stop stop-color="#fff"/><stop offset="1" stop-color="#fff" stop-opacity="0"/></linearGradient><linearGradient id="paint1_linear_1338_2990" x1="43.022" x2="42.95" y1="19.2" y2="38" gradientUnits="userSpaceOnUse"><stop stop-color="#fff"/><stop offset="1" stop-color="#fff" stop-opacity="0"/></linearGradient><clipPath id="clip0_1338_2990"><rect width="64" height="64" fill="#fff"/></clipPath></defs></svg>