<svg xmlns="http://www.w3.org/2000/svg" width="797.11577" height="598.24466" viewBox="0 0 797.11577 598.24466" xmlns:xlink="http://www.w3.org/1999/xlink"><circle cx="553.82356" cy="30" r="30" fill="#ff6584"/><g><g><polygon points="634.24197 572.81558 623.43685 573.03878 617.41395 530.54397 633.35953 530.21362 634.24197 572.81558" fill="#ffb6b6"/><path d="M600.1435,591.00002c.05777,2.66672,2.26303,4.78348,4.92986,4.73201l21.48121-.44666,3.53758-7.73036,1.60403,7.61947,8.1055-.16266-2.84236-27.25964-2.82474-.1054-11.52243-.45757-3.7172-.14033,.1602,7.73156-16.91063,12.20406c-1.28593,.92868-2.0339,2.42959-2.00101,4.01552Z" fill="#2f2e41"/></g><g><polygon points="706.95318 572.81558 696.14806 573.03878 690.12516 530.54397 706.07074 530.21362 706.95318 572.81558" fill="#ffb6b6"/><path d="M672.85472,591.00002c.05777,2.66672,2.26303,4.78348,4.92986,4.73201l21.48121-.44666,3.53758-7.73036,1.60403,7.61947,8.1055-.16266-2.84236-27.25964-2.82474-.1054-11.52243-.45757-3.7172-.14033,.1602,7.73156-16.91063,12.20406c-1.28593,.92868-2.0339,2.42959-2.00101,4.01552Z" fill="#2f2e41"/></g><path d="M645.13168,246.09588l59.49099-1.65253-3.30506,4.95758,7.52746,7.43637s27.17562,37.18187,18.91298,71.05868c-8.26264,33.87681-3.61084,234.15469-3.61084,234.15469l-48.44378-5.27963,5.37071-202.02149-39.66066,76.01627,11.53191,123.23417-41.27741-.12087-13.22022-133.02847,46.6839-174.75479Z" fill="#2f2e41"/></g><path d="M396.26902,86.26655c.22394,.55166,.99694,.55161,1.22077-.00016,1.56147-3.8494,3.78448-8.16027,6.20251-11.45472,.38714-.52746-.14657-1.23226-.76183-1.0097l-5.18327,1.87521V43.59077h-1.73515v32.08647l-5.18518-1.87548c-.61526-.22256-1.14891,.48224-.76178,1.0097,2.41814,3.2945,4.64141,7.60554,6.20394,11.45509Z" fill="#3f3d56"/><path d="M430.25973,119.30389c-.16772,.57127,.43765,1.05196,.95607,.75908,3.61674-2.04334,8.03852-4.03665,11.9809-5.11272,.6312-.17229,.65157-1.05613,.03136-1.26448l-5.22518-1.75505,19.95475-25.12659-1.35878-1.0791-19.95478,25.12664-2.8941-4.69337c-.34339-.55692-1.19961-.33688-1.22448,.31693-.15525,4.08375-1.09529,8.84236-2.26575,12.82866Z" fill="#3f3d56"/><g><path d="M556.99558,177.92945l32.04131-3.69326,4.66358,18.00947-34.015,2.6994c-.72392,.74967-1.56721,1.4082-2.52551,1.94059-5.21203,2.89558-11.7846,1.01771-14.68018-4.19432-2.89558-5.21203-1.01771-11.7846,4.19432-14.68018,3.32395-1.84664,7.19751-1.74459,10.32148-.0817Z" fill="#ffb6b6"/><path d="M710.41365,136.39001l-12.5401-19.03003c-2.27997,1.81-4.27997,3.63-5.78998,5.23999l-2.60004,1.79004-8.39996,7.50995-23.78003,21.23004-7.90997,7.07001-8.83002,1.54999-19.48999,3.42999-29.51568,7.94234-21.73432,1.40764c-.01001,.44-.01001,1.10004-.01001,1.92004-.01001,4.26996,.09003,12.90997,.92999,17.62,.29004,1.63995,.67004,2.79999,1.17004,3.14996,.15997,.10999,16.80433-5.08763,17.64429-5.09764,6.77002-.01001,18.08569,1.84764,40.91571-1.12233,13.56-1.78003,25.5-3.40002,30.51996-4.09003l.11005-.01996,3.62994-1.76001,39.85004-19.30005,12.03003-5.82996c-1-8.06-3.07007-16.01001-6.19995-23.60999Z" fill="#6c63ff"/></g><path d="M22.69,27.94094C10.15866,27.94094,0,38.09961,0,50.63095V434.94094H2V185.62094C2,99.64096,71.70001,29.94094,157.67999,29.94094l397.68367-.36367-.36367-1.63633H22.69Z" fill="#3f3d56"/><ellipse cx="127.70614" cy="83.1512" rx="8.45661" ry="8.64507" fill="#3f3d56"/><ellipse cx="156.91989" cy="83.1512" rx="8.45661" ry="8.64507" fill="#3f3d56"/><ellipse cx="186.13364" cy="83.1512" rx="8.45661" ry="8.64507" fill="#3f3d56"/><g><path d="M333.5136,185.00004c-12.53134,0-22.69001,10.15865-22.69001,22.68999l-.00008,164.31h2v-29.32001c.00005-85.97998,69.7001-155.67996,155.68008-155.67992l144.68367-.3636-.36366-1.63633-279.31-.00013Z" fill="#f2f2f2"/><g><path d="M417.52738,286.97251c-1.10303,0-2,.89697-2,2v31c-.00002,1.10303,.89696,2,1.99998,2s2-.89697,2-2v-31c.00002-1.10303-.89696-2-1.99998-2Z" fill="#3f3d56"/><g><ellipse cx="437.12845" cy="304.64297" rx="12.46328" ry="12.20069" fill="#6c63ff"/><path d="M537.04131,300.4691l-67.08496-.00003c-2.30142,0-4.17392-1.8725-4.17392-4.17392s1.8725-4.17392,4.17392-4.17392l67.08496,.00003c2.30142,0,4.17392,1.8725,4.17392,4.17392s-1.8725,4.17392-4.17392,4.17392Z" fill="#f2f2f2"/><path d="M589.39463,314.59623l-119.43829-.00006c-2.30142,0-4.17392-1.8725-4.17392-4.17392s1.8725-4.17392,4.17392-4.17392l119.43829,.00006c2.30142,0,4.17392,1.8725,4.17392,4.17392s-1.8725,4.17392-4.17392,4.17392Z" fill="#f2f2f2"/></g></g><ellipse cx="423.70614" cy="225.1512" rx="8.45661" ry="8.64507" fill="#f2f2f2"/><ellipse cx="452.91989" cy="225.1512" rx="8.45661" ry="8.64507" fill="#f2f2f2"/><ellipse cx="482.13364" cy="225.1512" rx="8.45661" ry="8.64507" fill="#f2f2f2"/></g><path d="M90.35415,169.40551c-1.10303,0-2,.89697-2,2v31c0,1.10303,.89697,2,2,2s2-.89697,2-2v-31c0-1.10303-.89697-2-2-2Z" fill="#3f3d56"/><g><ellipse cx="109.95523" cy="187.07596" rx="12.46328" ry="12.20069" fill="#6c63ff"/><path d="M209.86809,182.90204h-67.08496c-2.30142,0-4.17392-1.87249-4.17392-4.17392s1.87249-4.17392,4.17392-4.17392h67.08496c2.30142,0,4.17392,1.87249,4.17392,4.17392s-1.87249,4.17392-4.17392,4.17392Z" fill="#f2f2f2"/><path d="M262.22142,197.02915h-119.43829c-2.30142,0-4.17392-1.87249-4.17392-4.17392s1.87249-4.17392,4.17392-4.17392h119.43829c2.30142,0,4.17392,1.87249,4.17392,4.17392s-1.87249,4.17392-4.17392,4.17392Z" fill="#f2f2f2"/></g><path d="M90.35415,255.40551c-1.10303,0-2,.89697-2,2v31c0,1.10303,.89697,2,2,2s2-.89697,2-2v-31c0-1.10303-.89697-2-2-2Z" fill="#3f3d56"/><g><ellipse cx="109.95523" cy="273.07596" rx="12.46328" ry="12.20069" fill="#6c63ff"/><path d="M209.86809,268.90204h-67.08496c-2.30142,0-4.17392-1.87249-4.17392-4.17392s1.87249-4.17392,4.17392-4.17392h67.08496c2.30142,0,4.17392,1.87249,4.17392,4.17392s-1.87249,4.17392-4.17392,4.17392Z" fill="#f2f2f2"/><path d="M262.22142,283.02915h-119.43829c-2.30142,0-4.17392-1.87249-4.17392-4.17392s1.87249-4.17392,4.17392-4.17392h119.43829c2.30142,0,4.17392,1.87249,4.17392,4.17392s-1.87249,4.17392-4.17392,4.17392Z" fill="#f2f2f2"/></g><g><path d="M90.35415,341.40551c-1.10303,0-2,.89697-2,2v31c0,1.10303,.89697,2,2,2s2-.89697,2-2v-31c0-1.10303-.89697-2-2-2Z" fill="#3f3d56"/><g><ellipse cx="109.95523" cy="359.07596" rx="12.46328" ry="12.20069" fill="#6c63ff"/><path d="M209.86809,354.90204h-67.08496c-2.30142,0-4.17392-1.87249-4.17392-4.17392s1.87249-4.17392,4.17392-4.17392h67.08496c2.30142,0,4.17392,1.87249,4.17392,4.17392s-1.87249,4.17392-4.17392,4.17392Z" fill="#f2f2f2"/><path d="M262.22142,369.02915h-119.43829c-2.30142,0-4.17392-1.87249-4.17392-4.17392s1.87249-4.17392,4.17392-4.17392h119.43829c2.30142,0,4.17392,1.87249,4.17392,4.17392s-1.87249,4.17392-4.17392,4.17392Z" fill="#f2f2f2"/></g></g><path d="M720.55788,278.12233c-1.23688,9.418-65.35004-12.88-73-17-14.31-7.69,.66218,.19717,.66218,.19717l-1.66218-47.19717-1.73432-28.12233s-.96997-7.47003-3-17c-.46002-2.14001-.95001-4.62-1.26001-7.25-.88-7.59003-.20996-16.41003,7.26001-21.75l26.04999-38.84003,12.83002-.75,11.16998,16.95001,12.5401,19.03003c3.12988,7.59998,5.19995,15.54999,6.19995,23.60999,.46997,3.76996,.70996,7.57001,.70996,11.38,0,6.70996-.72998,13.44-2.20996,20.06l-7.8501,22.01001s-.98797,3.72472,2.46009,5.81001c6.99573,4.2308-7.16571,15.8623,1.5,30.26996,0,0-.80994,6.61998,3.04992,7.2,3.86011,.59003,6.80524,17.42641,6.28437,21.39235Z" fill="#6c63ff"/><g><path d="M596.00401,300.74969l19.02355-26.04593,16.39515,8.79141-21.09268,26.82174c.05967,1.04043-.02861,2.10674-.28759,3.17197-1.40851,5.7936-7.24702,9.34844-13.04061,7.93993-5.7936-1.40851-9.34844-7.24702-7.93993-13.04061,.89827-3.69484,3.60109-6.47146,6.94211-7.63851Z" fill="#ffb6b6"/><path d="M676.34787,136.44544c-4.34035-3.12209-9.42376-5.33038-15.01626-6.31032-7.63304-1.33157-11.91422,9.65173-13.5967,20.36388-.77353,4.96486-1.00211,9.87419-.7359,13.45777l-.44949,3.1346-.26317,16.22693-.62066,37.51486-19.10779,28.28916-8,19-16.34824,20.89685c.31917,.30716,.80674,.75474,1.40771,1.31706,3.13566,2.90002,9.53601,8.68411,13.57087,11.26415,1.40239,.88986,2.50706,1.39554,3.1025,1.27104,.18791-.04094,11.69948-11.12891,12.26716-11.7491,3.8183-4.15637,4.57003-9.7346,16.11486-25.94736,10.51524-14.7559,20.76859-29.42922,24.47277-34.7387l.06808-.09518,16.64483-54.89617,1.51386-4.97616c1.61405-13.62793-4.52548-26.48237-15.02442-34.02332Z" fill="#6c63ff"/></g><path d="M666.91017,137.2677c-.03101-.01196-.0589-.02625-.08972-.03833-.2572,.02136-.51184,.03674-.76068,.03833h.8504Z" fill="#2f2e41"/><circle cx="674.37449" cy="65.07091" r="29.08812" fill="#ffb6b6"/><path d="M634.99198,56.98588c-1.96381-14.10135,3.7617-18.41542,12.71962-19.69336,17.72365-9.21077,21.78317-6.89541,27.40239-5.89577l2.06473-.44424c6.33666-1.36336,8.63549-.78173,14.27119,1.34865,11.887,4.48215,19.69595,15.84776,20.56044,28.52134,.59469,8.73684-2.14357,10.09703,2.9215,17.1923,4.23561,5.92353,.99605,14.23752-6.11481,15.76746l-6.61838,10.00584c-1.6116-2.03703-2.89952-4.17168-4.35971-6.84654-.57596,2.38662-.63983,5.11944-.33935,7.85757-6.58918,3.28205-13.78262,4.64007-21.4128,4.60707-1.22727-1.63552-2.3268-3.45688-2.18161-5.50876-.42365,2.05599-.9421,4.10432-1.03128,6.20003-4.79967-3.09072-8.76696-2.18272-11.9346,2.56779-8.00073-6.63103-8.62737-21.82477,.88289-25.63072,8.04571-3.21985-4.64581-25.76026-13.2997-26.21987-.05571-.00296-2.3604,8.71193-2.44232,8.54811-1.22116-2.44232-.66263-3.78109-2.12275-6.45598-.4796,2.01207-.60941,4.26549-.45108,6.55939-2.06165-.45033-4.14958-1.10924-6.25678-1.98746-2.44392-3.31915-3.38878-6.79646-2.25759-10.49287Z" fill="#2f2e41"/><path d="M742.85689,580.91171c2.06592,.12937,3.20768-2.43737,1.64468-3.93333l-.1555-.61819c.02047-.04951,.04105-.09897,.06178-.14839,2.08924-4.9818,9.16992-4.94742,11.24139,.04177,1.83859,4.42817,4.17942,8.86389,4.75579,13.54594,.25838,2.0668,.14213,4.17236-.31648,6.20047,4.30807-9.41059,6.57515-19.68661,6.57515-30.02077,0-2.59652-.14213-5.19301-.43275-7.78295-.239-2.11854-.56839-4.2241-.99471-6.31034-2.30575-11.2772-7.29852-22.01825-14.50012-30.98962-3.46197-1.89248-6.34906-4.85065-8.09295-8.39652-.62649-1.27891-1.11739-2.65462-1.34991-4.05618,.39398,.05168,1.48556-5.94866,1.18841-6.3168,.54906-.83317,1.53178-1.24733,2.13144-2.06034,2.98232-4.04341,7.0912-3.33741,9.23621,2.15727,4.58224,2.31266,4.62659,6.14806,1.81495,9.83683-1.78878,2.34682-2.03456,5.52233-3.60408,8.03478,.16151,.20671,.32944,.40695,.4909,.61366,2.96106,3.79788,5.52208,7.88002,7.68104,12.16859-.61017-4.76621,.29067-10.50822,1.82641-14.20959,1.74819-4.21732,5.02491-7.76915,7.91045-11.41501,3.46601-4.37924,10.57337-2.46806,11.18401,3.08332,.00591,.05375,.01166,.10745,.01731,.1612-.4286,.24178-.84849,.49867-1.25864,.76992-2.33949,1.54723-1.53096,5.17386,1.24107,5.60174l.06277,.00967c-.15503,1.54366-.41984,3.07444-.80734,4.57937,3.70179,14.31579-4.29011,19.5299-15.70147,19.76412-.25191,.12916-.49738,.25832-.74929,.38109,1.15617,3.25525,2.07982,6.59447,2.76441,9.97891,.61359,2.99043,1.03991,6.01317,1.27885,9.04888,.29715,3.83006,.27129,7.67959-.05168,11.50323l.01939-.13562c.82024-4.21115,3.10671-8.14462,6.4266-10.87028,4.94561-4.06264,11.93282-5.55869,17.26826-8.82425,2.56833-1.57196,5.85945,.45945,5.41121,3.43708l-.02182,.14261c-.79443,.32289-1.56947,.69755-2.31871,1.11733-.4286,.24184-.84848,.49867-1.25864,.76992-2.33949,1.54729-1.53096,5.17392,1.24107,5.6018l.06282,.00965c.0452,.00646,.08397,.01295,.12911,.01944-1.36282,3.23581-3.26168,6.23922-5.63854,8.82922-2.31463,12.49713-12.25603,13.68282-22.89022,10.04354h-.00648c-1.16259,5.06378-2.86128,10.01127-5.0444,14.72621h-18.02019c-.06463-.20022-.12274-.40692-.18089-.60717,1.6664,.10341,3.34571,.00649,4.98629-.29702-1.33701-1.64059-2.67396-3.29409-4.01097-4.93462-.03229-.0323-.05816-.0646-.08397-.09689-.67817-.8396-1.36282-1.67283-2.04099-2.51246l-.00036-.00102c-.04245-2.57755,.26652-5.14662,.87876-7.63984l.00057-.00035Z" fill="#f2f2f2"/><path d="M541.30554,597.05466c0,.66003,.53003,1.19,1.19006,1.19h253.28998c.65997,0,1.19-.52997,1.19-1.19,0-.65997-.53003-1.19-1.19-1.19h-253.28998c-.66003,0-1.19006,.53003-1.19006,1.19Z" fill="#ccc"/><g><path d="M414.0266,140.71614h-33.72142c-2.09368,0-3.79696-1.70328-3.79696-3.79696-4.45851-13.03165-4.37046-25.80093,0-38.32306,0-2.09368,1.70329-3.79696,3.79696-3.79696h33.72142c2.09368,0,3.79696,1.70328,3.79696,3.79696v38.32306c0,2.09368-1.70328,3.79696-3.79696,3.79696Z" fill="#e6e6e6"/><path d="M387.53027,95.93044c-5.46252,0-9.89077,4.42825-9.89077,9.89076v30.28487c0,1.92125,1.55748,3.47874,3.47874,3.47874h18.648c9.34795,0,16.92596-7.57801,16.92596-16.92596v-23.24967c0-1.92125-1.55748-3.47874-3.47874-3.47874h-25.6832Z" fill="#fff"/><g><path d="M405.01919,107.06733h-15.78792c-.39803,0-.72189-.32387-.72189-.72189,0-.39803,.32387-.72174,.72189-.72174h15.78792c.39803,0,.72174,.32372,.72174,.72174s-.32372,.72189-.72174,.72189Z" fill="#e6e6e6"/><path d="M405.01919,122.45988h-15.78792c-.39803,0-.72189-.32387-.72189-.72189,0-.39803,.32387-.72174,.72189-.72174h15.78792c.39803,0,.72174,.32372,.72174,.72174s-.32372,.72189-.72174,.72189Z" fill="#e6e6e6"/><path d="M413.49115,114.76865h-32.73185c-.39803,0-.72189-.32387-.72189-.72189,0-.39803,.32387-.72174,.72189-.72174h32.73185c.39803,0,.72174,.32372,.72174,.72174s-.32372,.72189-.72174,.72189Z" fill="#e6e6e6"/></g><path d="M413.87719,128.71847h-13.65783c-.39803,0-.72189-.32387-.72189-.72189,0-.39803,.32387-.72174,.72189-.72174h13.65783c.39803,0,.72174,.32372,.72174,.72174,0,.39803-.32372,.72189-.72174,.72189Z" fill="#e6e6e6"/></g></svg>