<svg xmlns="http://www.w3.org/2000/svg" width="1168" height="736" font-family="Inter, Segoe UI, Roboto, Helvetica, Arial, sans-serif" viewBox="0 0 1168 736"><defs><linearGradient id="logoG" x1="0" x2="1" y1="0" y2="1"><stop offset="0" stop-color="#4f93ff"/><stop offset="1" stop-color="#2563eb"/></linearGradient><linearGradient id="cpuArea" x1="0" x2="0" y1="0" y2="1"><stop offset="0" stop-color="#3b82f6" stop-opacity=".28"/><stop offset="1" stop-color="#3b82f6" stop-opacity="0"/></linearGradient></defs><rect width="1168" height="736" x="0" y="0" fill="#0a0e15" stroke="none" stroke-width="1" rx="0"/><rect width="208" height="736" x="0" y="0" fill="#0c111a" stroke="none" stroke-width="1" rx="0"/><line x1="208" x2="208" y1="0" y2="736" stroke="#1b2330" stroke-width="1"/><line x1="208" x2="1168" y1="58" y2="58" stroke="#1b2330" stroke-width="1"/><g><path fill="#fff" d="M236 1.5c-9.8 3.3-35.5 16.6-62.4 32.5-13.3 8.1-44.3 25.9-68.5 39.8-51.8 29.4-69.5 44.5-77 66.4-4.3 12.6-4.8 22.1-4.8 115.8 0 119.8 0 119.3 23.7 143 13.8 14.1 31.2 24.7 152 92.9 42.5 23.9 64.4 26.2 96.6 9.3 26.2-13.6 133.9-76.3 153-88.8 19.1-12.6 31.7-28.4 37-46.3 2-7.6 3-40.3 3-112.5 0-99.4-.3-102.2-5.5-116-8.6-21.4-24.7-34.7-79.8-66.4-26.2-14.8-59.7-34.2-74.2-42.8C290.6 5.5 280.3 1.2 259.9.2c-9.6-.5-20.4 0-23.9 1.3m51.6 141.1c16.6 9.6 41.8 23.9 56.1 32l25.7 14.6v65.9c0 65.9 0 66.2-5.5 69.5-3.3 2-13.1 7.8-22.1 12.8-9.1 5.3-31.7 18.1-50.3 28.9l-34 19.6-.8-65.7-.8-65.7-41.8-23.9c-22.9-13.1-47.8-27.4-55.1-31.5-7.6-4.3-13.1-8.6-12.8-9.8.8-2.3 106.7-64.4 110-64.2.7.2 14.8 8 31.4 17.5" transform="translate(15,16) scale(0.05448) translate(-23.3,-0.01)"/></g><text x="49" y="28" fill="#e7eaef" font-family="Inter, 'Segoe UI', Roboto, Helvetica, Arial, sans-serif" font-size="12.5" font-weight="700" text-anchor="start">demo.openpanel.com</text><text x="49" y="41" fill="#6d7889" font-family="Inter, 'Segoe UI', Roboto, Helvetica, Arial, sans-serif" font-size="9.5" font-weight="400" text-anchor="start">OpenPanel Enterprise license</text><rect width="184" height="28" x="12" y="74" fill="#10151f" stroke="#1b2330" stroke-width="1" rx="7"/><g fill="none" stroke="#6d7889" stroke-linecap="round" stroke-linejoin="round" stroke-width="1.4"><circle cx="29.2" cy="86.2" r="3.9"/><path d="M32.06 89.06 l3.6400000000000006 3.6400000000000006"/></g><text x="46" y="92" fill="#4a5464" font-family="Inter, 'Segoe UI', Roboto, Helvetica, Arial, sans-serif" font-size="11" font-weight="400" text-anchor="start">Search...</text><rect width="188" height="26" x="10" y="122" fill="#132339" stroke="none" stroke-width="1" rx="7"/><rect width="3" height="18" x="10" y="126" fill="#3b82f6" stroke="none" stroke-width="1" rx="1.5"/><g fill="none" stroke="#3b82f6" stroke-linecap="round" stroke-linejoin="round" stroke-width="1.4"><rect width="7" height="7" x="20" y="127.5" rx="1.5"/><rect width="7" height="7" x="20" y="135.5" rx="1.5"/><rect width="7" height="7" x="28" y="127.5" rx="1.5"/><rect width="7" height="7" x="28" y="135.5" rx="1.5"/></g><text x="46" y="140.5" fill="#3b82f6" font-family="Inter, 'Segoe UI', Roboto, Helvetica, Arial, sans-serif" font-size="12" font-weight="600" text-anchor="start">Dashboard</text><g fill="none" stroke="#6d7889" stroke-linecap="round" stroke-linejoin="round" stroke-width="1.4"><path d="M22 168.5 h11 M27.5 170.5 v0.5 M23 168.5 v-6.3 a4.2 4.2 0 0 1 9 0 v6.3"/></g><text x="46" y="169.5" fill="#e7eaef" font-family="Inter, 'Segoe UI', Roboto, Helvetica, Arial, sans-serif" font-size="12" font-weight="400" text-anchor="start">Notifications</text><rect width="22" height="14" x="170" y="157" fill="#3b82f6" stroke="none" stroke-width="1" rx="7"/><text x="181" y="167" fill="#fff" font-family="Inter, 'Segoe UI', Roboto, Helvetica, Arial, sans-serif" font-size="9" font-weight="700" text-anchor="middle">5+</text><g fill="none" stroke="#6d7889" stroke-linecap="round" stroke-linejoin="round" stroke-width="1.4"><circle cx="27.5" cy="193" r="6.5"/><path d="M27.5 189.7 v3.5999999999999996 l3.0 2.1"/></g><text x="46" y="198.5" fill="#e7eaef" font-family="Inter, 'Segoe UI', Roboto, Helvetica, Arial, sans-serif" font-size="12" font-weight="400" text-anchor="start">Recent</text><path fill="none" stroke="#4a5464" stroke-linecap="round" stroke-linejoin="round" stroke-width="1.3" d="M178 193 l3-3 l3 3"/><text x="48" y="227.5" fill="#6d7889" font-family="Inter, 'Segoe UI', Roboto, Helvetica, Arial, sans-serif" font-size="11" font-weight="400" text-anchor="start">Dashboard</text><path fill="none" stroke="#4a5464" stroke-linecap="round" stroke-width="1.2" d="M182 218 l4 4 M184 216 a3 3 0 0 1 4 4 l-1.5 1.5 -4-4 z"/><text x="48" y="251.5" fill="#6d7889" font-family="Inter, 'Segoe UI', Roboto, Helvetica, Arial, sans-serif" font-size="11" font-weight="400" text-anchor="start">Users</text><path fill="none" stroke="#4a5464" stroke-linecap="round" stroke-width="1.2" d="M182 242 l4 4 M184 240 a3 3 0 0 1 4 4 l-1.5 1.5 -4-4 z"/><text x="48" y="275.5" fill="#6d7889" font-family="Inter, 'Segoe UI', Roboto, Helvetica, Arial, sans-serif" font-size="11" font-weight="400" text-anchor="start">Passkeys</text><path fill="none" stroke="#4a5464" stroke-linecap="round" stroke-width="1.2" d="M182 266 l4 4 M184 264 a3 3 0 0 1 4 4 l-1.5 1.5 -4-4 z"/><g fill="none" stroke="#6d7889" stroke-linecap="round" stroke-linejoin="round" stroke-width="1.4"><circle cx="25.4" cy="291.6" r="3"/><path d="M22 300.5 c0-4.8 9.9-4.8 9.9 0"/></g><text x="46" y="299.5" fill="#e7eaef" font-family="Inter, 'Segoe UI', Roboto, Helvetica, Arial, sans-serif" font-size="12" font-weight="400" text-anchor="start">Accounts</text><path fill="none" stroke="#4a5464" stroke-linecap="round" stroke-linejoin="round" stroke-width="1.3" d="M178 292 l3 3 l3-3"/><g fill="none" stroke="#6d7889" stroke-linecap="round" stroke-linejoin="round" stroke-width="1.4"><path d="M21 320.6 l6.5 3.5999999999999996 l6.5-3.5999999999999996 l-6.5-3.5999999999999996 z"/><path d="M21 324.8 l6.5 3.5999999999999996 l6.5-3.5999999999999996"/></g><text x="46" y="328.5" fill="#e7eaef" font-family="Inter, 'Segoe UI', Roboto, Helvetica, Arial, sans-serif" font-size="12" font-weight="400" text-anchor="start">Hosting Plans</text><path fill="none" stroke="#4a5464" stroke-linecap="round" stroke-linejoin="round" stroke-width="1.3" d="M178 321 l3 3 l3-3"/><g fill="none" stroke="#6d7889" stroke-linecap="round" stroke-linejoin="round" stroke-width="1.4"><circle cx="27.5" cy="352" r="6.5"/><path d="M21 352.0 h13 M27.5 345.5 c-5.1000000000000005 3.0 -5.1000000000000005 9.0 0 13 c5.1000000000000005-6.0 5.1000000000000005-12.0 0-13"/></g><text x="46" y="357.5" fill="#e7eaef" font-family="Inter, 'Segoe UI', Roboto, Helvetica, Arial, sans-serif" font-size="12" font-weight="400" text-anchor="start">Domains</text><path fill="none" stroke="#4a5464" stroke-linecap="round" stroke-linejoin="round" stroke-width="1.3" d="M178 350 l3 3 l3-3"/><g fill="none" stroke="#6d7889" stroke-linecap="round" stroke-linejoin="round" stroke-width="1.4"><rect width="13" height="10" x="21" y="376" rx="2"/><path d="M21.5 377.0 l6.5 5.1000000000000005 l6.5-5.1000000000000005"/></g><text x="46" y="386.5" fill="#e7eaef" font-family="Inter, 'Segoe UI', Roboto, Helvetica, Arial, sans-serif" font-size="12" font-weight="400" text-anchor="start">Emails</text><path fill="none" stroke="#4a5464" stroke-linecap="round" stroke-linejoin="round" stroke-width="1.3" d="M178 379 l3 3 l3-3"/><g fill="none" stroke="#6d7889" stroke-linecap="round" stroke-linejoin="round" stroke-width="1.4"><circle cx="27.5" cy="410" r="3"/><circle cx="27.5" cy="410" r="6.6" stroke-dasharray="1.6 2.4"/></g><text x="46" y="415.5" fill="#e7eaef" font-family="Inter, 'Segoe UI', Roboto, Helvetica, Arial, sans-serif" font-size="12" font-weight="400" text-anchor="start">Settings</text><path fill="none" stroke="#4a5464" stroke-linecap="round" stroke-linejoin="round" stroke-width="1.3" d="M178 408 l3 3 l3-3"/><g fill="none" stroke="#6d7889" stroke-linecap="round" stroke-linejoin="round" stroke-width="1.4"><rect width="13" height="5.4" x="21" y="433.5" rx="1.5"/><rect width="13" height="5.4" x="21" y="439.3" rx="1.5"/></g><text x="46" y="444.5" fill="#e7eaef" font-family="Inter, 'Segoe UI', Roboto, Helvetica, Arial, sans-serif" font-size="12" font-weight="400" text-anchor="start">Services</text><path fill="none" stroke="#4a5464" stroke-linecap="round" stroke-linejoin="round" stroke-width="1.3" d="M178 437 l3 3 l3-3"/><g fill="none" stroke="#6d7889" stroke-linecap="round" stroke-linejoin="round" stroke-width="1.4"><path d="M27.5 461.5 l6.3 2.4 v5.1000000000000005 c0 4.5-6.3 6.6-6.3 6.6 s-6.3-2.1-6.3-6.6 v-5.1000000000000005 z"/></g><text x="46" y="473.5" fill="#e7eaef" font-family="Inter, 'Segoe UI', Roboto, Helvetica, Arial, sans-serif" font-size="12" font-weight="400" text-anchor="start">Security</text><path fill="none" stroke="#4a5464" stroke-linecap="round" stroke-linejoin="round" stroke-width="1.3" d="M178 466 l3 3 l3-3"/><g fill="none" stroke="#6d7889" stroke-linecap="round" stroke-linejoin="round" stroke-width="1.4"><path d="M21 494.3 h13 M21 499.7 h13"/><circle cx="29.9" cy="494.3" r="2"/><circle cx="25.1" cy="499.7" r="2"/></g><text x="46" y="502.5" fill="#e7eaef" font-family="Inter, 'Segoe UI', Roboto, Helvetica, Arial, sans-serif" font-size="12" font-weight="400" text-anchor="start">Advanced</text><path fill="none" stroke="#4a5464" stroke-linecap="round" stroke-linejoin="round" stroke-width="1.3" d="M178 495 l3 3 l3-3"/><g fill="none" stroke="#6d7889" stroke-linecap="round" stroke-linejoin="round" stroke-width="1.4"><circle cx="27.5" cy="526" r="6.5"/><circle cx="27.5" cy="526" r="3"/></g><text x="46" y="531.5" fill="#e7eaef" font-family="Inter, 'Segoe UI', Roboto, Helvetica, Arial, sans-serif" font-size="12" font-weight="400" text-anchor="start">License &amp; Support</text><line x1="12" x2="196" y1="691" y2="691" stroke="#161d29" stroke-width="1"/><circle cx="28" cy="707" r="12" fill="#132339" stroke="#2b4d86" stroke-width="1"/><text x="28" y="711" fill="#3b82f6" font-family="Inter, 'Segoe UI', Roboto, Helvetica, Arial, sans-serif" font-size="12" font-weight="700" text-anchor="middle">A</text><text x="48" y="711" fill="#e7eaef" font-family="Inter, 'Segoe UI', Roboto, Helvetica, Arial, sans-serif" font-size="12" font-weight="500" text-anchor="start">administrator</text><path fill="none" stroke="#4a5464" stroke-linecap="round" stroke-linejoin="round" stroke-width="1.2" d="M184 704 l3-3 l3 3 M184 710 l3 3 l3-3"/><path fill="none" stroke="#6d7889" stroke-linejoin="round" stroke-width="1.3" d="M228 20 h14 v18 h-14 z M235 20 v18"/><text x="254" y="34" fill="#e7eaef" font-family="Inter, 'Segoe UI', Roboto, Helvetica, Arial, sans-serif" font-size="14" font-weight="600" text-anchor="start">Dashboard</text><rect width="58" height="26" x="894" y="16" fill="#10151f" stroke="#1b2330" stroke-width="1" rx="7"/><rect width="2.4" height="4" x="903" y="30" fill="#6d7889" stroke="none" stroke-width="1" rx=".6"/><rect width="2.4" height="7" x="906.5" y="27" fill="#6d7889" stroke="none" stroke-width="1" rx=".6"/><rect width="2.4" height="10" x="910" y="24" fill="#6d7889" stroke="none" stroke-width="1" rx=".6"/><text x="932" y="33" fill="#e7eaef" font-family="Inter, 'Segoe UI', Roboto, Helvetica, Arial, sans-serif" font-size="9.5" font-weight="600" text-anchor="middle">1.14</text><rect width="58" height="26" x="958" y="16" fill="#10151f" stroke="#1b2330" stroke-width="1" rx="7"/><rect width="9.4" height="7" x="967" y="26.5" fill="none" stroke="#6d7889" stroke-width="1.3" rx="1.3"/><path fill="none" stroke="#6d7889" stroke-linecap="round" stroke-width="1.1" d="M968.6 26.5 v-2 M971.7 26.5 v-2 M974.8 26.5 v-2"/><text x="996" y="33" fill="#e7eaef" font-family="Inter, 'Segoe UI', Roboto, Helvetica, Arial, sans-serif" font-size="9.5" font-weight="600" text-anchor="middle">68.8%</text><rect width="58" height="26" x="1022" y="16" fill="#10151f" stroke="#1b2330" stroke-width="1" rx="7"/><rect width="6" height="6" x="1032.7" y="25.7" fill="none" stroke="#6d7889" stroke-width="1.2" rx="1"/><path fill="none" stroke="#6d7889" stroke-linecap="round" stroke-width="1.1" d="M1034.2 25.7 v-1.5 M1036.7 25.7 v-1.5 M1034.2 31.7 v1.5 M1036.7 31.7 v1.5 M1032.7 27.2 h-1.5 M1032.7 29.7 h-1.5 M1038.7 27.2 h1.5 M1038.7 29.7 h1.5"/><text x="1060" y="33" fill="#e7eaef" font-family="Inter, 'Segoe UI', Roboto, Helvetica, Arial, sans-serif" font-size="9.5" font-weight="600" text-anchor="middle">6.9%</text><rect width="58" height="26" x="1086" y="16" fill="#10151f" stroke="#1b2330" stroke-width="1" rx="7"/><ellipse cx="1099.7" cy="25.6" fill="none" stroke="#6d7889" stroke-width="1.2" rx="4.7" ry="1.6"/><path fill="none" stroke="#6d7889" stroke-width="1.2" d="M1095 25.6 v6.8 a4.7 1.6 0 0 0 9.4 0 v-6.8"/><text x="1124" y="33" fill="#e7eaef" font-family="Inter, 'Segoe UI', Roboto, Helvetica, Arial, sans-serif" font-size="9.5" font-weight="600" text-anchor="middle">54.7%</text><text x="232" y="108" fill="#e7eaef" font-family="Inter, 'Segoe UI', Roboto, Helvetica, Arial, sans-serif" font-size="21" font-weight="700" text-anchor="start">Welcome administrator</text><text x="232" y="128" fill="#6d7889" font-family="Inter, 'Segoe UI', Roboto, Helvetica, Arial, sans-serif" font-size="11" font-weight="400" text-anchor="start">Want a quick guided tour of OpenAdmin?</text><text x="464" y="128" fill="#3b82f6" font-family="Inter, 'Segoe UI', Roboto, Helvetica, Arial, sans-serif" font-size="11" font-weight="600" text-anchor="start">Take the tour</text><text x="536" y="128" fill="#6d7889" font-family="Inter, 'Segoe UI', Roboto, Helvetica, Arial, sans-serif" font-size="11" font-weight="400" text-anchor="start">· Skip</text><text x="672.286" y="94" fill="#6d7889" font-family="Inter, 'Segoe UI', Roboto, Helvetica, Arial, sans-serif" font-size="8.5" font-weight="600" letter-spacing=".5" text-anchor="middle">NODES</text><text x="668.286" y="118" fill="#e7eaef" font-family="Inter, 'Segoe UI', Roboto, Helvetica, Arial, sans-serif" font-size="17" font-weight="600" text-anchor="end">1</text><text x="671.286" y="118" fill="#4a5464" font-family="Inter, 'Segoe UI', Roboto, Helvetica, Arial, sans-serif" font-size="12" font-weight="400" text-anchor="middle">/</text><path fill="none" stroke="#4a5464" stroke-width="1.2" d="M674.286 113.3 C674.286 111.300 676.286 111.300 677.486 113.3 C678.686 115.300 680.686 115.300 680.686 113.3 C680.686 111.300 678.686 111.300 677.486 113.3 C676.286 115.300 674.286 115.300 674.286 113.3 Z"/><text x="744.857" y="94" fill="#6d7889" font-family="Inter, 'Segoe UI', Roboto, Helvetica, Arial, sans-serif" font-size="8.5" font-weight="600" letter-spacing=".5" text-anchor="middle">CONTAINERS</text><text x="740.857" y="118" fill="#e7eaef" font-family="Inter, 'Segoe UI', Roboto, Helvetica, Arial, sans-serif" font-size="17" font-weight="600" text-anchor="end">22</text><text x="743.857" y="118" fill="#4a5464" font-family="Inter, 'Segoe UI', Roboto, Helvetica, Arial, sans-serif" font-size="12" font-weight="400" text-anchor="middle">/</text><path fill="none" stroke="#4a5464" stroke-width="1.2" d="M746.857 113.3 C746.857 111.300 748.857 111.300 750.057 113.3 C751.257 115.300 753.257 115.300 753.257 113.3 C753.257 111.300 751.257 111.300 750.057 113.3 C748.857 115.300 746.857 115.300 746.857 113.3 Z"/><text x="817.429" y="94" fill="#6d7889" font-family="Inter, 'Segoe UI', Roboto, Helvetica, Arial, sans-serif" font-size="8.5" font-weight="600" letter-spacing=".5" text-anchor="middle">USERS</text><text x="813.429" y="118" fill="#e7eaef" font-family="Inter, 'Segoe UI', Roboto, Helvetica, Arial, sans-serif" font-size="17" font-weight="600" text-anchor="end">3</text><text x="816.429" y="118" fill="#4a5464" font-family="Inter, 'Segoe UI', Roboto, Helvetica, Arial, sans-serif" font-size="12" font-weight="400" text-anchor="middle">/</text><path fill="none" stroke="#4a5464" stroke-width="1.2" d="M819.429 113.3 C819.429 111.300 821.429 111.300 822.629 113.3 C823.829 115.300 825.829 115.300 825.829 113.3 C825.829 111.300 823.829 111.300 822.629 113.3 C821.429 115.300 819.429 115.300 819.429 113.3 Z"/><text x="890" y="94" fill="#6d7889" font-family="Inter, 'Segoe UI', Roboto, Helvetica, Arial, sans-serif" font-size="8.5" font-weight="600" letter-spacing=".5" text-anchor="middle">DOMAINS</text><text x="886" y="118" fill="#e7eaef" font-family="Inter, 'Segoe UI', Roboto, Helvetica, Arial, sans-serif" font-size="17" font-weight="600" text-anchor="end">10</text><text x="889" y="118" fill="#4a5464" font-family="Inter, 'Segoe UI', Roboto, Helvetica, Arial, sans-serif" font-size="12" font-weight="400" text-anchor="middle">/</text><path fill="none" stroke="#4a5464" stroke-width="1.2" d="M892.000 113.3 C892.000 111.300 894.000 111.300 895.200 113.3 C896.400 115.300 898.400 115.300 898.400 113.3 C898.400 111.300 896.400 111.300 895.200 113.3 C894.000 115.300 892.000 115.300 892.000 113.3 Z"/><text x="962.571" y="94" fill="#6d7889" font-family="Inter, 'Segoe UI', Roboto, Helvetica, Arial, sans-serif" font-size="8.5" font-weight="600" letter-spacing=".5" text-anchor="middle">WEBSITES</text><text x="958.571" y="118" fill="#e7eaef" font-family="Inter, 'Segoe UI', Roboto, Helvetica, Arial, sans-serif" font-size="17" font-weight="600" text-anchor="end">5</text><text x="961.571" y="118" fill="#4a5464" font-family="Inter, 'Segoe UI', Roboto, Helvetica, Arial, sans-serif" font-size="12" font-weight="400" text-anchor="middle">/</text><path fill="none" stroke="#4a5464" stroke-width="1.2" d="M964.571 113.3 C964.571 111.300 966.571 111.300 967.771 113.3 C968.971 115.300 970.971 115.300 970.971 113.3 C970.971 111.300 968.971 111.300 967.771 113.3 C966.571 115.300 964.571 115.300 964.571 113.3 Z"/><text x="1035.143" y="94" fill="#6d7889" font-family="Inter, 'Segoe UI', Roboto, Helvetica, Arial, sans-serif" font-size="8.5" font-weight="600" letter-spacing=".5" text-anchor="middle">PACKAGES</text><text x="1031.143" y="118" fill="#e7eaef" font-family="Inter, 'Segoe UI', Roboto, Helvetica, Arial, sans-serif" font-size="17" font-weight="600" text-anchor="end">3</text><text x="1034.143" y="118" fill="#4a5464" font-family="Inter, 'Segoe UI', Roboto, Helvetica, Arial, sans-serif" font-size="12" font-weight="400" text-anchor="middle">/</text><path fill="none" stroke="#4a5464" stroke-width="1.2" d="M1037.143 113.3 C1037.143 111.300 1039.143 111.300 1040.343 113.3 C1041.543 115.300 1043.543 115.300 1043.543 113.3 C1043.543 111.300 1041.543 111.300 1040.343 113.3 C1039.143 115.300 1037.143 115.300 1037.143 113.3 Z"/><text x="1107.714" y="94" fill="#6d7889" font-family="Inter, 'Segoe UI', Roboto, Helvetica, Arial, sans-serif" font-size="8.5" font-weight="600" letter-spacing=".5" text-anchor="middle">EMAILS</text><text x="1103.714" y="118" fill="#e7eaef" font-family="Inter, 'Segoe UI', Roboto, Helvetica, Arial, sans-serif" font-size="17" font-weight="600" text-anchor="end">0</text><text x="1106.714" y="118" fill="#4a5464" font-family="Inter, 'Segoe UI', Roboto, Helvetica, Arial, sans-serif" font-size="12" font-weight="400" text-anchor="middle">/</text><path fill="none" stroke="#4a5464" stroke-width="1.2" d="M1109.714 113.3 C1109.714 111.300 1111.714 111.300 1112.914 113.3 C1114.114 115.300 1116.114 115.300 1116.114 113.3 C1116.114 111.300 1114.114 111.300 1112.914 113.3 C1111.714 115.300 1109.714 115.300 1109.714 113.3 Z"/><text x="232" y="178" fill="#e7eaef" font-family="Inter, 'Segoe UI', Roboto, Helvetica, Arial, sans-serif" font-size="15" font-weight="600" text-anchor="start">User Activity</text><text x="232" y="194" fill="#6d7889" font-family="Inter, 'Segoe UI', Roboto, Helvetica, Arial, sans-serif" font-size="10" font-weight="400" text-anchor="start">Real-time user activity log.</text><circle cx="243" cy="226" r="11" fill="#10151f" stroke="#1b2330" stroke-width="1"/><text x="243" y="229.5" fill="#6d7889" font-family="Inter, 'Segoe UI', Roboto, Helvetica, Arial, sans-serif" font-size="10" font-weight="700" text-anchor="middle">D</text><text x="262" y="224" fill="#e7eaef" font-family="Inter, 'Segoe UI', Roboto, Helvetica, Arial, sans-serif" font-size="10.5" font-weight="500" text-anchor="start">2001:db8:7f21:1cf7:c639…bc8d</text><text x="262" y="237" fill="#6d7889" font-family="Inter, 'Segoe UI', Roboto, Helvetica, Arial, sans-serif" font-size="9.5" font-weight="400" text-anchor="start">User</text><text x="288" y="237" fill="#e7eaef" font-family="Inter, 'Segoe UI', Roboto, Helvetica, Arial, sans-serif" font-size="9.5" font-weight="600" text-anchor="start">demo</text><text x="320" y="237" fill="#6d7889" font-family="Inter, 'Segoe UI', Roboto, Helvetica, Arial, sans-serif" font-size="9.5" font-weight="400" text-anchor="start">added a domain pejcic.rs</text><text x="528" y="224" fill="#6d7889" font-family="Inter, 'Segoe UI', Roboto, Helvetica, Arial, sans-serif" font-size="9.5" font-weight="400" text-anchor="end">Today 0:54:05</text><line x1="232" x2="528" y1="249" y2="249" stroke="#161d29" stroke-width="1"/><circle cx="243" cy="268" r="11" fill="#10151f" stroke="#1b2330" stroke-width="1"/><text x="243" y="271.5" fill="#6d7889" font-family="Inter, 'Segoe UI', Roboto, Helvetica, Arial, sans-serif" font-size="10" font-weight="700" text-anchor="middle">D</text><text x="262" y="266" fill="#e7eaef" font-family="Inter, 'Segoe UI', Roboto, Helvetica, Arial, sans-serif" font-size="10.5" font-weight="500" text-anchor="start">192.0.2.113</text><text x="262" y="279" fill="#6d7889" font-family="Inter, 'Segoe UI', Roboto, Helvetica, Arial, sans-serif" font-size="9.5" font-weight="400" text-anchor="start">User</text><text x="288" y="279" fill="#e7eaef" font-family="Inter, 'Segoe UI', Roboto, Helvetica, Arial, sans-serif" font-size="9.5" font-weight="600" text-anchor="start">demo</text><text x="320" y="279" fill="#6d7889" font-family="Inter, 'Segoe UI', Roboto, Helvetica, Arial, sans-serif" font-size="9.5" font-weight="400" text-anchor="start">disabled waf for domain pejcic.rs</text><text x="528" y="266" fill="#6d7889" font-family="Inter, 'Segoe UI', Roboto, Helvetica, Arial, sans-serif" font-size="9.5" font-weight="400" text-anchor="end">Today 1:02:02</text><line x1="232" x2="528" y1="291" y2="291" stroke="#161d29" stroke-width="1"/><circle cx="243" cy="310" r="11" fill="#10151f" stroke="#1b2330" stroke-width="1"/><text x="243" y="313.5" fill="#6d7889" font-family="Inter, 'Segoe UI', Roboto, Helvetica, Arial, sans-serif" font-size="10" font-weight="700" text-anchor="middle">D</text><text x="262" y="308" fill="#e7eaef" font-family="Inter, 'Segoe UI', Roboto, Helvetica, Arial, sans-serif" font-size="10.5" font-weight="500" text-anchor="start">2001:db8:9173:2a81:3cf0…b324</text><text x="262" y="321" fill="#6d7889" font-family="Inter, 'Segoe UI', Roboto, Helvetica, Arial, sans-serif" font-size="9.5" font-weight="400" text-anchor="start">User</text><text x="288" y="321" fill="#e7eaef" font-family="Inter, 'Segoe UI', Roboto, Helvetica, Arial, sans-serif" font-size="9.5" font-weight="600" text-anchor="start">demo</text><text x="320" y="321" fill="#6d7889" font-family="Inter, 'Segoe UI', Roboto, Helvetica, Arial, sans-serif" font-size="9.5" font-weight="400" text-anchor="start">installed wordpress on pejcic.rs/blog</text><text x="528" y="308" fill="#6d7889" font-family="Inter, 'Segoe UI', Roboto, Helvetica, Arial, sans-serif" font-size="9.5" font-weight="400" text-anchor="end">Today 1:13:44</text><line x1="232" x2="528" y1="333" y2="333" stroke="#161d29" stroke-width="1"/><circle cx="243" cy="352" r="11" fill="#10151f" stroke="#1b2330" stroke-width="1"/><text x="243" y="355.5" fill="#6d7889" font-family="Inter, 'Segoe UI', Roboto, Helvetica, Arial, sans-serif" font-size="10" font-weight="700" text-anchor="middle">D</text><text x="262" y="350" fill="#e7eaef" font-family="Inter, 'Segoe UI', Roboto, Helvetica, Arial, sans-serif" font-size="10.5" font-weight="500" text-anchor="start">198.51.100.47</text><text x="262" y="363" fill="#6d7889" font-family="Inter, 'Segoe UI', Roboto, Helvetica, Arial, sans-serif" font-size="9.5" font-weight="400" text-anchor="start">User</text><text x="288" y="363" fill="#e7eaef" font-family="Inter, 'Segoe UI', Roboto, Helvetica, Arial, sans-serif" font-size="9.5" font-weight="600" text-anchor="start">demo</text><text x="320" y="363" fill="#6d7889" font-family="Inter, 'Segoe UI', Roboto, Helvetica, Arial, sans-serif" font-size="9.5" font-weight="400" text-anchor="start">enabled 2fa for the account</text><text x="528" y="350" fill="#6d7889" font-family="Inter, 'Segoe UI', Roboto, Helvetica, Arial, sans-serif" font-size="9.5" font-weight="400" text-anchor="end">Today 4:43:27</text><line x1="232" x2="528" y1="375" y2="375" stroke="#161d29" stroke-width="1"/><circle cx="243" cy="394" r="11" fill="#10151f" stroke="#1b2330" stroke-width="1"/><text x="243" y="397.5" fill="#6d7889" font-family="Inter, 'Segoe UI', Roboto, Helvetica, Arial, sans-serif" font-size="10" font-weight="700" text-anchor="middle">D</text><text x="262" y="392" fill="#e7eaef" font-family="Inter, 'Segoe UI', Roboto, Helvetica, Arial, sans-serif" font-size="10.5" font-weight="500" text-anchor="start">203.0.113.155</text><text x="262" y="405" fill="#6d7889" font-family="Inter, 'Segoe UI', Roboto, Helvetica, Arial, sans-serif" font-size="9.5" font-weight="400" text-anchor="start">User</text><text x="288" y="405" fill="#e7eaef" font-family="Inter, 'Segoe UI', Roboto, Helvetica, Arial, sans-serif" font-size="9.5" font-weight="600" text-anchor="start">demo</text><text x="320" y="405" fill="#6d7889" font-family="Inter, 'Segoe UI', Roboto, Helvetica, Arial, sans-serif" font-size="9.5" font-weight="400" text-anchor="start">uploaded a file backup.zip</text><text x="528" y="392" fill="#6d7889" font-family="Inter, 'Segoe UI', Roboto, Helvetica, Arial, sans-serif" font-size="9.5" font-weight="400" text-anchor="end">Today 4:50:30</text><line x1="232" x2="528" y1="417" y2="417" stroke="#161d29" stroke-width="1"/><circle cx="243" cy="436" r="11" fill="#10151f" stroke="#1b2330" stroke-width="1"/><text x="243" y="439.5" fill="#6d7889" font-family="Inter, 'Segoe UI', Roboto, Helvetica, Arial, sans-serif" font-size="10" font-weight="700" text-anchor="middle">D</text><text x="262" y="434" fill="#e7eaef" font-family="Inter, 'Segoe UI', Roboto, Helvetica, Arial, sans-serif" font-size="10.5" font-weight="500" text-anchor="start">192.0.2.6</text><text x="262" y="447" fill="#6d7889" font-family="Inter, 'Segoe UI', Roboto, Helvetica, Arial, sans-serif" font-size="9.5" font-weight="400" text-anchor="start">User</text><text x="288" y="447" fill="#e7eaef" font-family="Inter, 'Segoe UI', Roboto, Helvetica, Arial, sans-serif" font-size="9.5" font-weight="600" text-anchor="start">demo</text><text x="320" y="447" fill="#6d7889" font-family="Inter, 'Segoe UI', Roboto, Helvetica, Arial, sans-serif" font-size="9.5" font-weight="400" text-anchor="start">extracted backup.zip to /var/www/html/..</text><text x="528" y="434" fill="#6d7889" font-family="Inter, 'Segoe UI', Roboto, Helvetica, Arial, sans-serif" font-size="9.5" font-weight="400" text-anchor="end">Today 4:56:45</text><line x1="232" x2="528" y1="459" y2="459" stroke="#161d29" stroke-width="1"/><circle cx="243" cy="478" r="11" fill="#10151f" stroke="#1b2330" stroke-width="1"/><text x="243" y="481.5" fill="#6d7889" font-family="Inter, 'Segoe UI', Roboto, Helvetica, Arial, sans-serif" font-size="10" font-weight="700" text-anchor="middle">D</text><text x="262" y="476" fill="#e7eaef" font-family="Inter, 'Segoe UI', Roboto, Helvetica, Arial, sans-serif" font-size="10.5" font-weight="500" text-anchor="start">2001:db8:4100:f4d0:580c…fb7c</text><text x="262" y="489" fill="#6d7889" font-family="Inter, 'Segoe UI', Roboto, Helvetica, Arial, sans-serif" font-size="9.5" font-weight="400" text-anchor="start">User</text><text x="288" y="489" fill="#e7eaef" font-family="Inter, 'Segoe UI', Roboto, Helvetica, Arial, sans-serif" font-size="9.5" font-weight="600" text-anchor="start">demo</text><text x="320" y="489" fill="#6d7889" font-family="Inter, 'Segoe UI', Roboto, Helvetica, Arial, sans-serif" font-size="9.5" font-weight="400" text-anchor="start">deleted file backup.zip</text><text x="528" y="476" fill="#6d7889" font-family="Inter, 'Segoe UI', Roboto, Helvetica, Arial, sans-serif" font-size="9.5" font-weight="400" text-anchor="end">Today 5:34:07</text><line x1="232" x2="528" y1="501" y2="501" stroke="#161d29" stroke-width="1"/><circle cx="243" cy="520" r="11" fill="#10151f" stroke="#1b2330" stroke-width="1"/><text x="243" y="523.5" fill="#6d7889" font-family="Inter, 'Segoe UI', Roboto, Helvetica, Arial, sans-serif" font-size="10" font-weight="700" text-anchor="middle">D</text><text x="262" y="518" fill="#e7eaef" font-family="Inter, 'Segoe UI', Roboto, Helvetica, Arial, sans-serif" font-size="10.5" font-weight="500" text-anchor="start">198.51.100.102</text><text x="262" y="531" fill="#6d7889" font-family="Inter, 'Segoe UI', Roboto, Helvetica, Arial, sans-serif" font-size="9.5" font-weight="400" text-anchor="start">User</text><text x="288" y="531" fill="#e7eaef" font-family="Inter, 'Segoe UI', Roboto, Helvetica, Arial, sans-serif" font-size="9.5" font-weight="600" text-anchor="start">demo</text><text x="320" y="531" fill="#6d7889" font-family="Inter, 'Segoe UI', Roboto, Helvetica, Arial, sans-serif" font-size="9.5" font-weight="400" text-anchor="start">edited file wp-config.php</text><text x="528" y="518" fill="#6d7889" font-family="Inter, 'Segoe UI', Roboto, Helvetica, Arial, sans-serif" font-size="9.5" font-weight="400" text-anchor="end">Today 8:27:45</text><line x1="232" x2="528" y1="543" y2="543" stroke="#161d29" stroke-width="1"/><circle cx="243" cy="562" r="11" fill="#10151f" stroke="#1b2330" stroke-width="1"/><text x="243" y="565.5" fill="#6d7889" font-family="Inter, 'Segoe UI', Roboto, Helvetica, Arial, sans-serif" font-size="10" font-weight="700" text-anchor="middle">D</text><text x="262" y="560" fill="#e7eaef" font-family="Inter, 'Segoe UI', Roboto, Helvetica, Arial, sans-serif" font-size="10.5" font-weight="500" text-anchor="start">2001:db8:6300:054c:245a…2037</text><text x="262" y="573" fill="#6d7889" font-family="Inter, 'Segoe UI', Roboto, Helvetica, Arial, sans-serif" font-size="9.5" font-weight="400" text-anchor="start">User</text><text x="288" y="573" fill="#e7eaef" font-family="Inter, 'Segoe UI', Roboto, Helvetica, Arial, sans-serif" font-size="9.5" font-weight="600" text-anchor="start">demo</text><text x="320" y="573" fill="#6d7889" font-family="Inter, 'Segoe UI', Roboto, Helvetica, Arial, sans-serif" font-size="9.5" font-weight="400" text-anchor="start">renewed SSL certificate for pejcic.rs</text><text x="528" y="560" fill="#6d7889" font-family="Inter, 'Segoe UI', Roboto, Helvetica, Arial, sans-serif" font-size="9.5" font-weight="400" text-anchor="end">Today 9:14:53</text><line x1="232" x2="528" y1="585" y2="585" stroke="#161d29" stroke-width="1"/><circle cx="243" cy="604" r="11" fill="#3b82f6" stroke="#3b82f6" stroke-width="1"/><text x="243" y="607.5" fill="#fff" font-family="Inter, 'Segoe UI', Roboto, Helvetica, Arial, sans-serif" font-size="10" font-weight="700" text-anchor="middle">D</text><text x="262" y="602" fill="#e7eaef" font-family="Inter, 'Segoe UI', Roboto, Helvetica, Arial, sans-serif" font-size="10.5" font-weight="500" text-anchor="start">203.0.113.59</text><text x="262" y="615" fill="#6d7889" font-family="Inter, 'Segoe UI', Roboto, Helvetica, Arial, sans-serif" font-size="9.5" font-weight="400" text-anchor="start">User</text><text x="288" y="615" fill="#e7eaef" font-family="Inter, 'Segoe UI', Roboto, Helvetica, Arial, sans-serif" font-size="9.5" font-weight="600" text-anchor="start">demo</text><text x="320" y="615" fill="#6d7889" font-family="Inter, 'Segoe UI', Roboto, Helvetica, Arial, sans-serif" font-size="9.5" font-weight="400" text-anchor="start">restarted PHP-FPM service</text><text x="528" y="602" fill="#6d7889" font-family="Inter, 'Segoe UI', Roboto, Helvetica, Arial, sans-serif" font-size="9.5" font-weight="400" text-anchor="end">Today 12:41:24</text><line x1="232" x2="528" y1="627" y2="627" stroke="#161d29" stroke-width="1"/><text x="560" y="178" fill="#e7eaef" font-family="Inter, 'Segoe UI', Roboto, Helvetica, Arial, sans-serif" font-size="15" font-weight="600" text-anchor="start">Latest News</text><text x="560" y="194" fill="#6d7889" font-family="Inter, 'Segoe UI', Roboto, Helvetica, Arial, sans-serif" font-size="10" font-weight="400" text-anchor="start">from the OpenPanel blog.</text><rect width="296" height="60" x="560" y="208" fill="#10151f" stroke="#1b2330" stroke-width="1" rx="8"/><rect width="62" height="44" x="568" y="216" fill="#141b26" stroke="#1b2330" stroke-width="1" rx="5"/><rect width="62" height="44" x="568" y="216" fill="#1b3a5c" stroke="none" stroke-width="1" opacity=".55" rx="5"/><circle cx="578" cy="226" r="4" fill="none" stroke="#9fbdff" stroke-width="1.2"/><text x="599" y="242" fill="#cfe0ff" font-family="Inter, 'Segoe UI', Roboto, Helvetica, Arial, sans-serif" font-size="7" font-weight="700" letter-spacing=".4" text-anchor="middle">PODMAN</text><text x="640" y="230" fill="#e7eaef" font-family="Inter, 'Segoe UI', Roboto, Helvetica, Arial, sans-serif" font-size="11" font-weight="600" text-anchor="start">Why OpenPanel 2.0 Is Switching</text><text x="640" y="243" fill="#e7eaef" font-family="Inter, 'Segoe UI', Roboto, Helvetica, Arial, sans-serif" font-size="11" font-weight="600" text-anchor="start">to Podman</text><text x="640" y="256" fill="#6d7889" font-family="Inter, 'Segoe UI', Roboto, Helvetica, Arial, sans-serif" font-size="9" font-weight="400" text-anchor="start">New installs move from Docker to Podman — th</text><rect width="296" height="60" x="560" y="276" fill="#10151f" stroke="#1b2330" stroke-width="1" rx="8"/><rect width="62" height="44" x="568" y="284" fill="#141b26" stroke="#1b2330" stroke-width="1" rx="5"/><rect width="62" height="44" x="568" y="284" fill="#12324a" stroke="none" stroke-width="1" opacity=".55" rx="5"/><circle cx="578" cy="294" r="4" fill="none" stroke="#9fbdff" stroke-width="1.2"/><text x="599" y="310" fill="#cfe0ff" font-family="Inter, 'Segoe UI', Roboto, Helvetica, Arial, sans-serif" font-size="7" font-weight="700" letter-spacing=".4" text-anchor="middle">llms.txt</text><text x="640" y="298" fill="#e7eaef" font-family="Inter, 'Segoe UI', Roboto, Helvetica, Arial, sans-serif" font-size="11" font-weight="600" text-anchor="start">Use AI to Manage Your Server:</text><text x="640" y="311" fill="#e7eaef" font-family="Inter, 'Segoe UI', Roboto, Helvetica, Arial, sans-serif" font-size="11" font-weight="600" text-anchor="start">Docs via llms.txt</text><text x="640" y="324" fill="#6d7889" font-family="Inter, 'Segoe UI', Roboto, Helvetica, Arial, sans-serif" font-size="9" font-weight="400" text-anchor="start">Feed the full OpenPanel docs into ChatGPT, C</text><rect width="296" height="60" x="560" y="344" fill="#10151f" stroke="#1b2330" stroke-width="1" rx="8"/><rect width="62" height="44" x="568" y="352" fill="#141b26" stroke="#1b2330" stroke-width="1" rx="5"/><rect width="62" height="44" x="568" y="352" fill="#173a2e" stroke="none" stroke-width="1" opacity=".55" rx="5"/><circle cx="578" cy="362" r="4" fill="none" stroke="#9fbdff" stroke-width="1.2"/><text x="599" y="378" fill="#cfe0ff" font-family="Inter, 'Segoe UI', Roboto, Helvetica, Arial, sans-serif" font-size="7" font-weight="700" letter-spacing=".4" text-anchor="middle">STORAGE</text><text x="640" y="366" fill="#e7eaef" font-family="Inter, 'Segoe UI', Roboto, Helvetica, Arial, sans-serif" font-size="11" font-weight="600" text-anchor="start">Using OpenPanel for File Storage</text><text x="640" y="379" fill="#e7eaef" font-family="Inter, 'Segoe UI', Roboto, Helvetica, Arial, sans-serif" font-size="11" font-weight="600" text-anchor="start">Hosting</text><text x="640" y="392" fill="#6d7889" font-family="Inter, 'Segoe UI', Roboto, Helvetica, Arial, sans-serif" font-size="9" font-weight="400" text-anchor="start">A step-by-step guide to file storage hosting</text><rect width="296" height="60" x="560" y="412" fill="#10151f" stroke="#1b2330" stroke-width="1" rx="8"/><rect width="62" height="44" x="568" y="420" fill="#141b26" stroke="#1b2330" stroke-width="1" rx="5"/><rect width="62" height="44" x="568" y="420" fill="#3a2a12" stroke="none" stroke-width="1" opacity=".55" rx="5"/><circle cx="578" cy="430" r="4" fill="none" stroke="#9fbdff" stroke-width="1.2"/><text x="599" y="446" fill="#cfe0ff" font-family="Inter, 'Segoe UI', Roboto, Helvetica, Arial, sans-serif" font-size="7" font-weight="700" letter-spacing=".4" text-anchor="middle">SELF-HOST</text><text x="640" y="434" fill="#e7eaef" font-family="Inter, 'Segoe UI', Roboto, Helvetica, Arial, sans-serif" font-size="11" font-weight="600" text-anchor="start">Why Self-Hosting with OpenPanel</text><text x="640" y="447" fill="#e7eaef" font-family="Inter, 'Segoe UI', Roboto, Helvetica, Arial, sans-serif" font-size="11" font-weight="600" text-anchor="start">Makes Sense</text><text x="640" y="460" fill="#6d7889" font-family="Inter, 'Segoe UI', Roboto, Helvetica, Arial, sans-serif" font-size="9" font-weight="400" text-anchor="start">Keep your data under your own control.</text><rect width="296" height="60" x="560" y="480" fill="#10151f" stroke="#1b2330" stroke-width="1" rx="8"/><rect width="62" height="44" x="568" y="488" fill="#141b26" stroke="#1b2330" stroke-width="1" rx="5"/><rect width="62" height="44" x="568" y="488" fill="#2a1b3a" stroke="none" stroke-width="1" opacity=".55" rx="5"/><circle cx="578" cy="498" r="4" fill="none" stroke="#9fbdff" stroke-width="1.2"/><text x="599" y="514" fill="#cfe0ff" font-family="Inter, 'Segoe UI', Roboto, Helvetica, Arial, sans-serif" font-size="7" font-weight="700" letter-spacing=".4" text-anchor="middle">LOGICWEB</text><text x="640" y="502" fill="#e7eaef" font-family="Inter, 'Segoe UI', Roboto, Helvetica, Arial, sans-serif" font-size="11" font-weight="600" text-anchor="start">OpenPanel is now available on</text><text x="640" y="515" fill="#e7eaef" font-family="Inter, 'Segoe UI', Roboto, Helvetica, Arial, sans-serif" font-size="11" font-weight="600" text-anchor="start">LOGICWEB</text><text x="640" y="528" fill="#6d7889" font-family="Inter, 'Segoe UI', Roboto, Helvetica, Arial, sans-serif" font-size="9" font-weight="400" text-anchor="start">Now an option on LOGICWEB VPS and dedicated</text><text x="888" y="178" fill="#e7eaef" font-family="Inter, 'Segoe UI', Roboto, Helvetica, Arial, sans-serif" font-size="15" font-weight="600" text-anchor="start">System Information</text><text x="888" y="194" fill="#6d7889" font-family="Inter, 'Segoe UI', Roboto, Helvetica, Arial, sans-serif" font-size="10" font-weight="400" text-anchor="start">Your server configuration.</text><rect width="256" height="396" x="888" y="204" fill="#0e131c" stroke="#1b2330" stroke-width="1" rx="8"/><text x="900" y="230.5" fill="#6d7889" font-family="Inter, 'Segoe UI', Roboto, Helvetica, Arial, sans-serif" font-size="10.5" font-weight="400" text-anchor="start">Hostname</text><text x="1132" y="230.5" fill="#e7eaef" font-family="Inter, 'Segoe UI', Roboto, Helvetica, Arial, sans-serif" font-size="10.5" font-weight="600" text-anchor="end">demo.openpanel.com</text><line x1="898" x2="1134" y1="246" y2="246" stroke="#161d29" stroke-width="1"/><text x="900" y="269.5" fill="#6d7889" font-family="Inter, 'Segoe UI', Roboto, Helvetica, Arial, sans-serif" font-size="10.5" font-weight="400" text-anchor="start">IPv4 Address</text><text x="1132" y="269.5" fill="#e7eaef" font-family="Inter, 'Segoe UI', Roboto, Helvetica, Arial, sans-serif" font-size="10.5" font-weight="600" text-anchor="end">185.7.32.92</text><line x1="898" x2="1134" y1="285" y2="285" stroke="#161d29" stroke-width="1"/><text x="900" y="308.5" fill="#6d7889" font-family="Inter, 'Segoe UI', Roboto, Helvetica, Arial, sans-serif" font-size="10.5" font-weight="400" text-anchor="start">OS</text><text x="1132" y="308.5" fill="#e7eaef" font-family="Inter, 'Segoe UI', Roboto, Helvetica, Arial, sans-serif" font-size="10.5" font-weight="600" text-anchor="end">Debian GNU/Linux 13 (trixie)</text><line x1="898" x2="1134" y1="324" y2="324" stroke="#161d29" stroke-width="1"/><text x="900" y="347.5" fill="#6d7889" font-family="Inter, 'Segoe UI', Roboto, Helvetica, Arial, sans-serif" font-size="10.5" font-weight="400" text-anchor="start">OpenPanel Version</text><text x="1132" y="347.5" fill="#e7eaef" font-family="Inter, 'Segoe UI', Roboto, Helvetica, Arial, sans-serif" font-size="10.5" font-weight="600" text-anchor="end">2.0.0</text><line x1="898" x2="1134" y1="363" y2="363" stroke="#161d29" stroke-width="1"/><text x="900" y="386.5" fill="#6d7889" font-family="Inter, 'Segoe UI', Roboto, Helvetica, Arial, sans-serif" font-size="10.5" font-weight="400" text-anchor="start">Server Time</text><text x="1132" y="386.5" fill="#e7eaef" font-family="Inter, 'Segoe UI', Roboto, Helvetica, Arial, sans-serif" font-size="10.5" font-weight="600" text-anchor="end">29. 7. 2026. 16:21:28</text><line x1="898" x2="1134" y1="402" y2="402" stroke="#161d29" stroke-width="1"/><text x="900" y="425.5" fill="#6d7889" font-family="Inter, 'Segoe UI', Roboto, Helvetica, Arial, sans-serif" font-size="10.5" font-weight="400" text-anchor="start">Kernel</text><text x="1132" y="425.5" fill="#e7eaef" font-family="Inter, 'Segoe UI', Roboto, Helvetica, Arial, sans-serif" font-size="10.5" font-weight="600" text-anchor="end">6.12.41+deb13-amd64</text><line x1="898" x2="1134" y1="441" y2="441" stroke="#161d29" stroke-width="1"/><text x="900" y="464.5" fill="#6d7889" font-family="Inter, 'Segoe UI', Roboto, Helvetica, Arial, sans-serif" font-size="10.5" font-weight="400" text-anchor="start">CPU</text><text x="1132" y="464.5" fill="#e7eaef" font-family="Inter, 'Segoe UI', Roboto, Helvetica, Arial, sans-serif" font-size="10.5" font-weight="600" text-anchor="end">Intel Xeon (Cascadelake)</text><line x1="898" x2="1134" y1="480" y2="480" stroke="#161d29" stroke-width="1"/><text x="900" y="503.5" fill="#6d7889" font-family="Inter, 'Segoe UI', Roboto, Helvetica, Arial, sans-serif" font-size="10.5" font-weight="400" text-anchor="start">Uptime</text><text x="1132" y="503.5" fill="#e7eaef" font-family="Inter, 'Segoe UI', Roboto, Helvetica, Arial, sans-serif" font-size="10.5" font-weight="600" text-anchor="end">35 days, 22 hours</text><line x1="898" x2="1134" y1="519" y2="519" stroke="#161d29" stroke-width="1"/><text x="900" y="542.5" fill="#6d7889" font-family="Inter, 'Segoe UI', Roboto, Helvetica, Arial, sans-serif" font-size="10.5" font-weight="400" text-anchor="start">Running Processes</text><text x="1132" y="542.5" fill="#e7eaef" font-family="Inter, 'Segoe UI', Roboto, Helvetica, Arial, sans-serif" font-size="10.5" font-weight="600" text-anchor="end">321</text><line x1="898" x2="1134" y1="558" y2="558" stroke="#161d29" stroke-width="1"/><text x="900" y="581.5" fill="#6d7889" font-family="Inter, 'Segoe UI', Roboto, Helvetica, Arial, sans-serif" font-size="10.5" font-weight="400" text-anchor="start">Package Updates</text><text x="1132" y="581.5" fill="#3b82f6" font-family="Inter, 'Segoe UI', Roboto, Helvetica, Arial, sans-serif" font-size="10.5" font-weight="600" text-anchor="end">96</text></svg>