<svg width="44" height="44" viewBox="0 0 44 44" fill="none" xmlns="http://www.w3.org/2000/svg">
<g clip-path="url(#clip0_1765_2282)">
<path fill-rule="evenodd" clip-rule="evenodd" d="M37.4116 10.6754C37.4116 11.1322 37.6125 11.4742 38.0133 11.7004C38.4141 11.9249 38.8113 11.9196 39.2068 11.6845L42.7625 9.56461C43.1465 9.33397 43.3384 8.99907 43.3384 8.55282V4.22994C43.3375 3.77044 43.1376 3.43111 42.7368 3.20489C42.3369 2.97868 41.9387 2.98574 41.5441 3.2208L37.9875 5.3407C37.6045 5.57134 37.4125 5.90625 37.4116 6.35161V10.6754ZM36.6331 28.0535C37.0286 27.8273 37.2268 27.4879 37.2285 27.0355L37.2499 20.2136C37.2508 19.7594 37.4489 19.4192 37.8444 19.193L41.5637 17.0687C41.7467 16.9644 41.944 16.9123 42.1556 16.9123C42.3671 16.9123 42.5644 16.9662 42.7474 17.0704C42.9305 17.1765 43.0745 17.3196 43.1802 17.5025C43.286 17.6837 43.3384 17.8799 43.3384 18.0911V30.4941C43.3384 30.9492 43.1402 31.2903 42.7439 31.5165L28.7102 39.5322C28.3183 39.7567 27.9255 39.7567 27.5327 39.5322L16.5189 33.2697C16.1207 33.0435 15.9217 32.7015 15.9217 32.2447V25.991C15.9217 25.9839 15.9297 25.9795 15.9368 25.9839C15.943 25.9866 15.951 25.9839 15.951 25.9751V25.968C15.951 25.9636 15.9536 25.9592 15.9581 25.9565L25.0283 20.773C25.0363 20.7686 25.0327 20.7553 25.0238 20.7553C25.0176 20.7553 25.0141 20.7527 25.0141 20.7465L25.0318 14.6147C25.0336 14.1597 24.8372 13.8186 24.4408 13.5897C24.0463 13.3635 23.6499 13.3608 23.2544 13.5897L16.5126 17.4522C16.1189 17.6784 15.7244 17.6784 15.3298 17.4522L8.56756 13.5809C8.38448 13.4748 8.18719 13.4227 7.97568 13.4227C7.76416 13.4227 7.56598 13.4766 7.3829 13.5809C7.19983 13.6869 7.05586 13.83 6.9501 14.013C6.84434 14.1941 6.79102 14.3903 6.79102 14.6015V25.6835C6.79102 25.8938 6.73859 26.0882 6.63283 26.272C6.52796 26.4549 6.38399 26.5981 6.20092 26.7041C6.01784 26.8084 5.82144 26.8623 5.60992 26.8623C5.39841 26.8623 5.20112 26.8128 5.01804 26.7085L1.26323 24.5763C0.865087 24.3474 0.666016 24.0063 0.666016 23.5494L0.699787 4.18046C0.699787 3.97014 0.753109 3.77574 0.858866 3.59194C0.964623 3.41079 1.10948 3.26852 1.29167 3.16159C1.47474 3.05732 1.67204 3.00342 1.88355 3.00342C2.09507 3.00342 2.29147 3.05555 2.47455 3.15983L15.3307 10.5039C15.7235 10.7275 16.1172 10.7275 16.5109 10.5039L29.3634 3.15983C29.5474 3.05555 29.7447 3.00342 29.9562 3.00342C30.1677 3.00342 30.365 3.05732 30.5481 3.16424C30.7312 3.26852 30.8751 3.41344 30.9809 3.5937C31.0866 3.77662 31.1391 3.97368 31.1391 4.18399V23.5583C31.1391 24.0134 30.9409 24.3527 30.5454 24.5807L23.8143 28.4361C23.4179 28.6623 23.2206 29.0043 23.2215 29.4585C23.2224 29.9136 23.4215 30.2547 23.8196 30.4791L27.5327 32.5814C27.9255 32.8058 28.3174 32.8032 28.7093 32.5814L36.6331 28.0544V28.0535Z" fill="#007FFF"/>
</g>
<defs>
<clipPath id="clip0_1765_2282">
<rect width="42.6724" height="42.6727" fill="white" transform="translate(0.664062 0.336426)"/>
</clipPath>
</defs>
</svg>
