<svg xmlns="http://www.w3.org/2000/svg" width="49" height="48" fill="none" viewBox="0 0 49 48">
  <path fill="#1890FF" d="M36.0276 9.7226c.4127 1.5389.063 3.1024-.8176 4.2904l.0059.0033-8.4256 12.4407c-1.6984-2.1015-4.133-3.5058-6.8037-3.9247l6.5703-13.51072.006.00344c.5894-1.35606 1.77-2.44037 3.3101-2.85268 2.6809-.71772 5.4363.87183 6.1546 3.55026Zm-17.001 16.5722c2.0104.1237 3.8702 1.1965 4.9826 2.8742.5312.8012.892 1.7404 1.0173 2.78.3422 2.8375-1.2311 5.5602-3.8618 6.6829L13.273 42l-1.0264-8.5126c-.3422-2.8375 1.2311-5.5602 3.8617-6.6829.9638-.4113 1.9582-.5688 2.9183-.5097Zm19.7593-9.709c-.7811.781-.7811 2.0474 0 2.8284L43.3716 24l-4.5857 4.5858c-.7811.781-.7811 2.0474 0 2.8284.781.7811 2.0473.7811 2.8284 0l6-6c.781-.781.781-2.0474 0-2.8284l-6-6c-.7811-.7811-2.0474-.7811-2.8284 0ZM9.61429 19.4142c.78101-.781.78101-2.0474 0-2.8284-.78105-.7811-2.04738-.7811-2.82843 0l-6.000001 6c-.78104777.781-.78104789 2.0474 0 2.8284l6.000001 6c.78105.7811 2.04738.7811 2.82843 0 .78101-.781.78101-2.0474 0-2.8284L5.0285 24l4.58579-4.5858Z"/>
</svg>
