<svg width="44" height="44" viewBox="0 0 44 44" fill="none" xmlns="http://www.w3.org/2000/svg">
<path d="M43.3365 21.6728C43.3365 9.88908 33.784 0.336426 22.0005 0.336426C10.2166 0.336426 0.664062 9.88908 0.664062 21.6728C0.664062 33.4562 10.2166 43.0091 22.0003 43.0091C33.784 43.0091 43.3365 33.4562 43.3365 21.6728Z" fill="#339AF0"/>
<path d="M18.0283 11.6069C17.8371 11.8653 17.7267 12.1741 17.711 12.4947C17.6953 12.8152 17.7749 13.1333 17.9399 13.4091C18.0494 13.5914 18.1941 13.7503 18.3657 13.8766C20.8508 15.7186 22.2776 18.535 22.2776 21.6048C22.2776 24.6746 20.8508 27.491 18.3657 29.333C18.1943 29.4594 18.0498 29.6183 17.9404 29.8006C17.7186 30.17 17.6529 30.6118 17.7578 31.0292C17.8097 31.236 17.9015 31.4305 18.0283 31.6015C18.1549 31.7725 18.3142 31.9169 18.4971 32.0264C18.68 32.136 18.8829 32.2084 19.0941 32.2397C19.3052 32.2709 19.5205 32.2603 19.7275 32.2085C19.9345 32.1566 20.1292 32.0646 20.3003 31.9376C21.0658 31.37 21.7669 30.7213 22.3916 30.003H26.9948C27.8911 30.003 28.6195 29.2773 28.6195 28.3814C28.6195 27.4855 27.8927 26.7598 26.9948 26.7598H24.4541C25.1643 25.1334 25.529 23.3784 25.5254 21.6051C25.5292 19.8316 25.1646 18.0765 24.4544 16.4498H26.9964C27.8927 16.4498 28.6208 15.7244 28.6208 14.8282C28.6208 13.9324 27.894 13.2069 26.9964 13.2069H22.3942C21.7693 12.4879 21.0676 11.8386 20.3017 11.2704C20.1307 11.1437 19.9363 11.0517 19.7296 10.9999C19.5228 10.9481 19.3079 10.9375 19.097 10.9686C18.6703 11.0324 18.2866 11.2619 18.0299 11.6069H18.0283Z" fill="white"/>
<path fill-rule="evenodd" clip-rule="evenodd" d="M15.4636 21.1211C15.4558 20.7984 15.5124 20.4774 15.6299 20.1766C15.747 19.8765 15.9229 19.6027 16.1475 19.371C16.3711 19.1403 16.6391 18.9567 16.9354 18.8309C17.2309 18.7057 17.5487 18.6411 17.8699 18.6411C18.1911 18.6411 18.509 18.7057 18.8045 18.8309C19.1009 18.9567 19.3689 19.1403 19.5926 19.371C19.8172 19.6027 19.9932 19.8765 20.1102 20.1766C20.2276 20.4775 20.284 20.7985 20.276 21.1211C20.2614 21.7515 20.0015 22.3517 19.5511 22.7953C19.1036 23.2359 18.4996 23.4832 17.8701 23.4838C17.2403 23.4834 16.6362 23.236 16.1886 22.7953C15.7381 22.3517 15.4782 21.7515 15.4636 21.1211Z" fill="white"/>
</svg>
