<svg width="44" height="43" viewBox="0 0 44 43" fill="none" xmlns="http://www.w3.org/2000/svg">
<path d="M20.1776 1.09559L1.4185 19.8394C0.409979 20.8471 0.409979 22.4747 1.4185 23.4824L20.1776 42.2262C21.1861 43.2338 22.815 43.2338 23.8236 42.2262L31.689 34.3671C32.5922 33.4647 32.5922 32.0015 31.689 31.099C30.7858 30.1966 29.3214 30.1966 28.4182 31.099L22.4555 37.0569C22.2045 37.3077 21.8235 37.3077 21.5725 37.0569L6.592 22.0886C6.34098 21.8378 6.34098 21.4571 6.592 21.2063L21.5725 6.23808C21.8235 5.98727 22.2045 5.98727 22.4555 6.23808L28.4182 12.1959C29.3214 13.0984 30.7858 13.0984 31.689 12.1959C32.5922 11.2935 32.5922 9.83028 31.689 8.92781L23.8244 1.06966C22.8118 0.0837742 21.1822 0.0917556 20.1776 1.09559Z" fill="url(#paint0_linear_1765_2287)"/>
<path d="M20.1776 1.09559L1.4185 19.8394C0.409979 20.8471 0.409979 22.4747 1.4185 23.4824L20.1776 42.2262C21.1861 43.2338 22.815 43.2338 23.8236 42.2262L31.689 34.3671C32.5922 33.4647 32.5922 32.0015 31.689 31.099C30.7858 30.1966 29.3214 30.1966 28.4182 31.099L22.4555 37.0569C22.2045 37.3077 21.8235 37.3077 21.5725 37.0569L6.592 22.0886C6.34098 21.8378 6.34098 21.4571 6.592 21.2063L21.5725 6.23808C22.1975 5.69925 23.2173 4.60785 24.7149 4.35259C25.8279 4.16288 27.0447 4.58042 28.3652 5.60519C27.4823 4.72301 25.9687 3.21117 23.8244 1.06966C22.8118 0.0837742 21.1822 0.0917556 20.1776 1.09559Z" fill="url(#paint1_linear_1765_2287)"/>
<path d="M33.5064 29.3561C34.4096 30.2585 35.874 30.2585 36.7772 29.3561L42.5791 23.5589C43.5876 22.5512 43.5876 20.9236 42.5792 19.916L36.7267 14.089C35.8214 13.1876 34.3565 13.1889 33.4528 14.0919C32.5496 14.9944 32.5496 16.4576 33.4528 17.36L37.4056 21.3096C37.6566 21.5604 37.6566 21.9411 37.4056 22.1919L33.5064 26.0879C32.6032 26.9904 32.6032 28.4536 33.5064 29.3561Z" fill="url(#paint2_linear_1765_2287)"/>
<path d="M22.0962 26.8152C24.8935 26.8152 27.1612 24.5494 27.1612 21.7544C27.1612 18.9594 24.8935 16.6936 22.0962 16.6936C19.2989 16.6936 17.0312 18.9594 17.0312 21.7544C17.0312 24.5494 19.2989 26.8152 22.0962 26.8152Z" fill="url(#paint3_linear_1765_2287)"/>
<defs>
<linearGradient id="paint0_linear_1765_2287" x1="20.3512" y1="0.336427" x2="38.1779" y2="11.2228" gradientUnits="userSpaceOnUse">
<stop stop-color="#4285EB"/>
<stop offset="1" stop-color="#2EC7FF"/>
</linearGradient>
<linearGradient id="paint1_linear_1765_2287" x1="22.7423" y1="0.336425" x2="13.9375" y2="45.8417" gradientUnits="userSpaceOnUse">
<stop stop-color="#29CDFF"/>
<stop offset="0.378601" stop-color="#148EFF"/>
<stop offset="1" stop-color="#0A60FF"/>
</linearGradient>
<linearGradient id="paint2_linear_1765_2287" x1="40.1348" y1="11.2576" x2="28.6784" y2="29.1743" gradientUnits="userSpaceOnUse">
<stop stop-color="#FA816E"/>
<stop offset="0.414726" stop-color="#F74A5C"/>
<stop offset="1" stop-color="#F51D2C"/>
</linearGradient>
<linearGradient id="paint3_linear_1765_2287" x1="23.9326" y1="13.0811" x2="20.1207" y2="28.3292" gradientUnits="userSpaceOnUse">
<stop stop-color="#FA8E7D"/>
<stop offset="0.512635" stop-color="#F74A5C"/>
<stop offset="1" stop-color="#F51D2C"/>
</linearGradient>
</defs>
</svg>
