<svg width="536" height="404" viewBox="0 0 536 404" fill="none" xmlns="http://www.w3.org/2000/svg">
<path fill-rule="evenodd" clip-rule="evenodd" d="M183.11 0.469936C160.277 3.12194 141.019 19.8539 134.381 42.8089C131.937 51.2609 132.144 65.8109 134.83 74.3089C140.945 93.6579 157.524 109.172 176.99 113.76C189.921 116.808 202.497 115.459 214.576 109.728C233.573 100.715 245.981 82.6999 247.64 61.7259C249.709 35.5679 232.531 10.4069 207.437 2.83994C198.171 0.0459366 191.963 -0.559065 183.11 0.469936ZM184.937 1.71394C184.937 1.93694 182.8 3.36994 180.187 4.89894C177.574 6.42794 173.051 9.93294 170.136 12.6879L164.834 17.6959L160.163 16.4469C157.594 15.7599 155.262 14.9669 154.98 14.6849C153.244 12.9489 169.284 4.76094 178.23 2.81694C181.644 2.07494 184.55 1.43194 184.687 1.38794C184.824 1.34494 184.937 1.49094 184.937 1.71394ZM195.937 1.80894C195.937 2.08394 195.712 2.30894 195.437 2.30894C195.162 2.30894 194.937 2.08394 194.937 1.80894C194.937 1.53394 195.162 1.30894 195.437 1.30894C195.712 1.30894 195.937 1.53394 195.937 1.80894ZM183.079 11.1639L178.546 20.0189L173.991 19.5349C166.427 18.7319 166.233 18.1269 171.902 13.0299C175.668 9.64494 185.665 2.79794 187.525 2.33094C187.573 2.31894 185.573 6.29394 183.079 11.1639ZM210.225 5.31594C216.264 7.57494 224.937 12.8059 224.937 14.1889C224.937 15.2169 219.58 17.3089 216.951 17.3089C216.022 17.3089 213.367 15.5059 211.051 13.3029C208.735 11.0999 204.499 7.67893 201.638 5.70093L196.437 2.10494L200.677 2.71694C203.008 3.05394 207.305 4.22294 210.225 5.31594ZM200.532 7.17794C203.78 9.30494 207.964 12.6559 209.83 14.6229L213.223 18.1989L210.83 18.6879C201.514 20.5919 202.447 21.0799 197.617 11.7759C195.199 7.11894 193.538 3.30894 193.924 3.30894C194.311 3.30894 197.284 5.04994 200.532 7.17794ZM188.937 12.3089V20.3089H184.937C182.629 20.3089 180.937 19.8309 180.937 19.1789C180.937 18.0739 188.075 4.30894 188.647 4.30894C188.807 4.30894 188.937 7.90894 188.937 12.3089ZM195.329 10.5589C200.875 20.4929 200.871 20.3089 195.544 20.3089H190.937V12.3089C190.937 7.90894 191.14 4.30894 191.388 4.30894C191.636 4.30894 193.409 7.12194 195.329 10.5589ZM316.137 15.5089C314.467 17.1789 314.637 20.2569 316.437 20.9469C317.707 21.4349 317.937 24.8839 317.937 43.4659C317.937 67.9079 318.434 70.2409 324.056 72.2009C326.21 72.9509 342.51 73.3089 374.586 73.3089C420.604 73.3089 421.993 73.3649 423.937 75.3089C425.842 77.2139 425.937 78.6419 425.937 105.359C425.937 136.451 426.239 138.173 432.056 140.201C434.189 140.944 449.179 141.309 477.621 141.309C513.894 141.309 520.343 141.529 522.331 142.832C525.055 144.616 527.606 143.926 528.482 141.169C529.728 137.241 524.595 134.606 521.937 137.809C520.865 139.1 514.612 139.309 476.949 139.309C434.441 139.309 433.134 139.251 430.614 137.27L428.022 135.231L427.729 105.682L427.437 76.1329L424.631 73.7209L421.825 71.3089H373.056H324.286L322.111 68.9949C320.011 66.7589 319.937 65.9099 319.937 43.9949C319.937 30.6299 320.32 21.3089 320.87 21.3089C321.383 21.3089 322.095 20.3869 322.452 19.2609C323.663 15.4469 318.981 12.6649 316.137 15.5089ZM158.889 17.8879L163.718 19.4669L160.332 24.6079C158.471 27.4349 156.472 31.1889 155.89 32.9509L154.833 36.1539L148.34 34.3529C144.769 33.3629 141.567 32.2719 141.224 31.9289C140.881 31.5869 141.239 30.1079 142.019 28.6439C143.855 25.1979 151.834 16.3089 153.092 16.3089C153.625 16.3089 156.234 17.0199 158.889 17.8879ZM232.639 21.0589C236.97 26.3489 240.27 31.3189 239.767 31.7929C239.095 32.4259 228.515 35.3089 226.864 35.3089C225.832 35.3089 224.535 33.8219 223.594 31.5589C222.735 29.4969 220.884 25.9349 219.479 23.6439L216.925 19.4799L221.181 17.9729C227.607 15.6989 228.433 15.9209 232.639 21.0589ZM173.144 20.9239L177.63 21.5389L175.125 29.6739C173.748 34.1479 172.487 37.9759 172.324 38.1799C171.811 38.8229 159.44 37.2379 157.995 36.3449C156.337 35.3199 157.525 31.9269 162.031 24.8219C165.048 20.0649 165.562 19.8849 173.144 20.9239ZM218.674 25.5589C220.412 28.4469 222.289 32.0289 222.846 33.5209C223.813 36.1099 223.691 36.2659 220.148 36.9519C218.107 37.3469 214.489 37.7019 212.108 37.7399L207.78 37.8089L205.372 30.3089C204.047 26.1839 202.958 22.4999 202.95 22.1219C202.937 21.4349 206.771 20.7689 212.476 20.4689C215.138 20.3289 215.906 20.9589 218.674 25.5589ZM188.937 30.9099V39.3089H182.104C178.345 39.3089 175.006 39.0449 174.683 38.7219C174.072 38.1109 176.226 30.0219 178.392 24.7899C179.567 21.9519 179.92 21.7929 184.289 22.1409L188.937 22.5099V30.9099ZM203.355 29.0619C204.775 33.3269 205.937 37.3769 205.937 38.0619C205.937 38.9469 203.759 39.3089 198.437 39.3089H190.937V30.8659V22.4239L195.187 22.0409C197.524 21.8309 199.738 21.5799 200.105 21.4839C200.472 21.3879 201.935 24.7979 203.355 29.0619ZM147.724 35.9139C150.866 36.8159 153.559 37.6579 153.708 37.7859C153.857 37.9129 153.547 40.2199 153.02 42.9129C152.492 45.6059 151.78 49.9469 151.438 52.5589L150.814 57.3089H142.238H133.662L134.293 51.9329C135.318 43.2169 138.805 33.0439 140.54 33.7099C141.349 34.0209 144.582 35.0129 147.724 35.9139ZM243.155 39.3669C244.183 42.3599 245.294 47.6219 245.625 51.0589L246.226 57.3089H237.582H228.937L228.893 53.5589C228.869 51.4969 228.28 47.1089 227.584 43.8089L226.318 37.8089L232.878 35.6679C236.485 34.4909 239.853 33.6169 240.361 33.7269C240.87 33.8359 242.127 36.3739 243.155 39.3669ZM168.706 39.9739L171.975 40.5389L171.406 45.6739C171.093 48.4979 170.614 52.2719 170.342 54.0589L169.846 57.3089H161.392H152.937V54.4929C152.937 51.2759 154.867 40.2339 155.652 38.9629C156.13 38.1879 160.178 38.5019 168.706 39.9739ZM225.854 43.3579C226.45 46.1349 226.937 50.4099 226.937 52.8579V57.3089H218.629H210.321L209.379 48.8619L208.437 40.4149L214.437 39.4899C225.057 37.8509 224.643 37.7109 225.854 43.3579ZM186.077 41.3089H188.937V49.3089V57.3089H180.308H171.679L172.378 50.2069C173.38 40.0439 173.43 39.9679 178.728 40.6939C181.196 41.0319 184.503 41.3089 186.077 41.3089ZM207.295 44.0589C207.636 46.1219 207.92 49.8339 207.926 52.3089L207.937 56.8089H199.437H190.937V49.1109V41.4139L196.187 41.0459C199.074 40.8439 202.616 40.5959 204.056 40.4939C206.353 40.3319 206.752 40.7709 207.295 44.0589ZM151.397 62.0589C151.7 64.1219 152.423 68.4439 153.003 71.6649C153.584 74.8849 153.919 77.6209 153.748 77.7449C153.577 77.8679 150.352 78.7839 146.582 79.7789C140.792 81.3069 139.588 81.3719 138.828 80.1979C137.329 77.8809 135.149 69.8499 134.407 63.9139L133.707 58.3089H142.276H150.846L151.397 62.0589ZM170.354 60.5589C170.604 61.7959 171.05 65.5699 171.346 68.9449L171.883 75.0819L165.16 75.9159C161.462 76.3749 157.766 76.7629 156.945 76.7789C155.456 76.8089 153.092 67.4239 152.984 61.0589L152.937 58.3089H161.418C169.412 58.3089 169.925 58.4379 170.354 60.5589ZM188.937 66.2299V74.1509L181.445 74.4799C176.454 74.6989 173.808 74.4259 173.516 73.6609C173.275 73.0299 172.763 69.3179 172.378 65.4109L171.679 58.3089H180.308H188.937V66.2299ZM207.926 62.5589C207.92 64.8969 207.636 68.4969 207.295 70.5589L206.675 74.3089H198.806H190.937V66.3089V58.3089H199.437H207.937L207.926 62.5589ZM226.937 62.7329C226.937 65.1659 226.403 69.4689 225.751 72.2939C224.727 76.7329 224.284 77.3639 222.501 76.9319C221.366 76.6569 217.6 76.1179 214.132 75.7349C209.211 75.1909 207.949 74.7199 208.383 73.5899C208.689 72.7929 209.228 69.0289 209.581 65.2249L210.224 58.3089H218.581H226.937V62.7329ZM245.636 64.6249C245.312 68.0989 244.109 73.4459 242.963 76.5089L240.88 82.0759L233.659 79.7529C228.969 78.2429 226.556 76.9699 226.777 76.1189C226.964 75.3979 227.627 71.0959 228.249 66.5589L229.38 58.3089H237.803H246.226L245.636 64.6249ZM174.971 85.4129C176.401 89.8149 177.316 93.5709 177.004 93.7599C176.692 93.9489 173.822 94.2619 170.626 94.4559L164.815 94.8089L161.425 89.3089C159.56 86.2839 157.751 82.6179 157.404 81.1629C156.778 78.5399 156.836 78.5089 164.105 77.6199C168.137 77.1269 171.647 76.8779 171.903 77.0659C172.16 77.2539 173.54 81.0099 174.971 85.4129ZM188.937 84.8089V93.3089H184.105C178.751 93.3089 179.015 93.6829 175.457 81.0589L174.118 76.3089H181.528H188.937V84.8089ZM205.395 79.5589C205.009 81.3459 203.816 85.1709 202.744 88.0589L200.793 93.3089H195.865H190.937V84.8089V76.3089H198.516H206.096L205.395 79.5589ZM217.171 77.7969C220.325 78.1559 223.111 78.7819 223.363 79.1889C223.922 80.0929 218.487 91.0439 216.255 93.5099C214.923 94.9819 213.669 95.1819 209.04 94.6619C205.958 94.3149 203.296 93.9149 203.123 93.7729C202.95 93.6299 204.019 89.6299 205.499 84.8839C207.613 78.1049 208.538 76.3499 209.813 76.6999C210.706 76.9449 214.017 77.4389 217.171 77.7969ZM155.951 82.3419C156.642 84.0099 158.646 87.7659 160.406 90.6869L163.605 95.9999L158.021 97.7299L152.437 99.4599L148.13 94.7249C143.144 89.2439 140.404 84.4329 141.602 83.2639C142.27 82.6119 151.378 79.7879 154.066 79.3999C154.411 79.3499 155.26 80.6739 155.951 82.3419ZM233.367 81.3599L240.008 83.4109L237.912 87.1099C235.833 90.7809 231.763 95.6659 228.795 98.0519C227.552 99.0509 226.29 98.9739 222.343 97.6569C219.645 96.7559 217.317 95.9269 217.17 95.8139C217.023 95.7009 218.504 92.9529 220.46 89.7089C222.416 86.4639 224.273 82.7959 224.585 81.5589C225.277 78.8209 225.157 78.8239 233.367 81.3599ZM182.437 103.013C184.637 107.246 186.598 111.103 186.796 111.584C187.446 113.173 179.542 108.512 173.687 103.854C165.639 97.4519 166.022 96.2839 176.437 95.4729C177.976 95.3529 179.358 97.0899 182.437 103.013ZM188.937 102.809C188.937 106.934 188.718 110.309 188.45 110.309C187.953 110.309 180.937 96.7909 180.937 95.8339C180.937 95.5449 182.737 95.3089 184.937 95.3089H188.937V102.809ZM196.492 102.059C190.992 112.755 190.969 112.762 190.952 103.559L190.937 95.3089H195.45H199.962L196.492 102.059ZM212.937 97.0409C213.754 97.7939 203.498 106.79 198.451 109.748C195.882 111.253 193.64 112.333 193.47 112.147C193.299 111.961 195.18 108.087 197.651 103.538L202.142 95.2669L207.289 95.9239C210.121 96.2849 212.662 96.7869 212.937 97.0409ZM167.5 100.424C169.115 102.137 173.545 105.737 177.344 108.424C181.143 111.111 183.6 113.309 182.804 113.309C176.764 113.309 160.097 106.354 156.432 102.303C154.912 100.624 155.075 100.424 159.126 98.9919C161.497 98.1529 163.69 97.4309 164 97.3879C164.31 97.3449 165.885 98.7109 167.5 100.424ZM223.437 99.7819L226.437 100.982L220.765 104.626C214.979 108.344 201.878 113.309 197.856 113.309C196.184 113.309 197.102 112.342 201.532 109.437C204.78 107.308 209.205 103.719 211.365 101.463C215.539 97.1029 216.428 96.9789 223.437 99.7819ZM303.262 114.982C301.505 119.208 300.64 120.087 297.078 121.262C294.801 122.014 292.937 122.935 292.937 123.309C292.937 123.683 294.801 124.604 297.078 125.356C300.64 126.531 301.505 127.41 303.262 131.636L305.304 136.55L307.475 131.632C309.349 127.385 310.212 126.543 313.791 125.471C316.071 124.788 317.937 123.869 317.937 123.429C317.937 122.989 316.07 122.013 313.788 121.26C310.258 120.095 309.316 119.158 307.472 114.979L305.304 110.068L303.262 114.982ZM73.3839 120.809C70.5479 128.448 70.1789 128.92 66.0709 130.151C63.7969 130.832 61.9369 131.728 61.9369 132.142C61.9369 132.557 63.8489 133.592 66.1869 134.443C69.7059 135.725 70.6979 136.695 71.9539 140.084C74.0679 145.788 74.5649 145.979 75.9679 141.626C77.6139 136.517 78.2389 135.859 82.9229 134.314C85.1309 133.585 86.9369 132.683 86.9369 132.309C86.9369 131.935 85.0699 131.013 82.7879 130.26C79.2449 129.09 78.3099 128.155 76.3829 123.85C74.4749 119.587 74.0119 119.118 73.3839 120.809ZM110.237 144.171C81.2809 154.176 66.6399 201.542 80.0569 241.809C87.2049 263.262 101.152 277.2 117.08 278.807C120.026 279.104 139.312 277.858 159.937 276.037L197.437 272.727L203.552 275.549C206.915 277.101 211.865 278.59 214.552 278.857C217.239 279.124 263.191 275.603 316.668 271.031L413.899 262.72L416.668 260.076C419.434 257.436 419.482 257.429 462.437 253.833L505.437 250.233L508.647 246.521C510.413 244.479 512.598 241.169 513.502 239.164C515.079 235.668 515.402 235.492 521.454 234.844C527.282 234.22 527.956 233.888 530.304 230.489C533.223 226.261 535.944 216.748 535.921 210.849C535.897 204.637 533.473 195.717 530.649 191.449C528.083 187.573 525.069 186.356 517.937 186.318C515.934 186.307 514.878 185.235 512.625 180.923C507.354 170.835 510.899 171.767 462.366 167.699L419.437 164.101L416.437 161.352L413.437 158.604L320.937 150.76C270.062 146.446 224.162 142.892 218.937 142.863C210.398 142.814 208.832 143.105 203.457 145.741L197.476 148.672L158.957 145.464C137.771 143.7 119.312 142.283 117.937 142.316C116.562 142.348 113.097 143.183 110.237 144.171ZM134.099 147.116C148.172 154.018 159.203 171.79 162.992 193.663C164.8 204.105 163.702 227.929 160.981 237.282C156.12 253.989 146.116 268.041 134.891 273.93C130.064 276.462 128.402 276.791 120.437 276.791C112.473 276.791 110.81 276.461 105.987 273.932C94.6559 267.988 85.7069 255.389 80.3019 237.772C77.7619 229.495 77.5469 227.47 77.4939 211.309C77.4289 191.393 78.5519 185.395 84.8889 171.809C91.0809 158.533 99.5679 149.628 109.7 145.774C115.477 143.577 128.323 144.283 134.099 147.116ZM231.892 147.261C250.955 157.092 263.657 186.957 261.55 216.992C259.705 243.293 247.882 266.296 232.287 273.926C224.467 277.752 214.511 278.289 206.62 275.311C179.948 265.244 166.241 218.223 178.911 180.26C184.887 162.355 195.944 149.436 208.931 145.185C213.82 143.585 227.09 144.785 231.892 147.261ZM162.19 147.289C174.976 148.378 187.696 149.523 190.457 149.832L195.478 150.396L190.745 155.517C182.881 164.026 176.562 178.184 173.878 193.309C172.291 202.249 172.501 221.262 174.286 230.309C177.276 245.465 183.466 258.433 191.705 266.807L195.974 271.146L189.705 271.744C175.224 273.126 138.053 276.309 136.393 276.309C135.281 276.309 136.382 275.125 139.277 273.207C149.789 266.244 158.546 252.316 163.106 235.309C166.337 223.259 166.341 197.73 163.114 185.809C158.651 169.321 149.254 154.644 138.991 148.131C133.565 144.686 132.211 144.736 162.19 147.289ZM271.084 148.284C289.978 149.92 329.737 153.291 359.437 155.775L413.437 160.291L417.296 164.55C434.345 183.366 436.313 228.537 421.101 251.887C415.235 260.891 415.14 260.938 400.437 262.209C355.05 266.131 234.19 276.308 232.991 276.308C232.196 276.309 233.546 275.037 235.991 273.483C246.623 266.725 255.301 253.54 260.128 236.809C262.158 229.776 262.437 226.634 262.437 210.809C262.437 196.773 262.053 191.421 260.694 186.507C255.5 167.723 246.887 154.71 234.291 146.618C232.534 145.489 232.55 145.424 234.584 145.368C235.766 145.335 252.191 146.648 271.084 148.284ZM113.074 155.588C107.783 157.279 99.6389 165.444 95.6269 173.079C89.3689 184.988 87.4789 193.656 87.5079 210.309C87.5359 226.917 89.0399 234.655 94.4079 245.815C100.67 258.835 110.932 267.322 120.383 267.299C130.076 267.276 140.438 258.818 146.485 245.995C151.277 235.834 153.012 228.471 153.655 215.57C155.562 177.309 135.925 148.284 113.074 155.588ZM208.136 156.897C186.11 167.873 177.184 213.405 191.032 244.139C198.814 261.41 211.663 270.157 223.562 266.286C240.202 260.871 251.19 238.58 251.154 210.309C251.136 196.229 249.132 186.69 243.878 175.683C235.104 157.299 221.587 150.194 208.136 156.897ZM467.259 169.67L505.08 172.956L507.495 175.882C521.478 192.825 521.191 232.152 506.986 245.762L503.977 248.645L465.707 251.935C444.658 253.745 425.969 255.244 424.174 255.267L420.912 255.309L423.268 251.559C436.235 230.922 436.063 187.743 422.942 169.315L420.801 166.309L425.119 166.347C427.494 166.368 446.457 167.863 467.259 169.67ZM528.323 191.356C529.734 193.033 531.574 196.714 532.412 199.538C535.49 209.901 533.617 223.97 528.323 230.262C526.126 232.873 525.077 233.309 520.995 233.309H516.23L517.703 228.059C519.736 220.814 519.713 199.408 517.665 193.059L516.133 188.309H520.946C525.083 188.309 526.119 188.737 528.323 191.356ZM516.49 258.809C515.545 261.284 514.414 263.309 513.976 263.309C513.539 263.309 511.439 264.038 509.309 264.928L505.437 266.547L509.604 268.178C514.752 270.193 515.053 270.494 517.06 275.624L518.682 279.773L521.06 274.879C523.032 270.819 524.204 269.687 527.937 268.242C532.917 266.314 533.194 266.744 524.879 263.502C523.151 262.828 521.883 261.177 520.969 258.407C520.225 256.153 519.3 254.309 518.913 254.309C518.526 254.309 517.435 256.334 516.49 258.809ZM1.50787 257.88C-0.37113 259.759 -0.493132 261.479 1.13687 263.109C2.78087 264.753 5.43787 264.615 6.93687 262.809C7.95587 261.581 11.3379 261.309 25.6049 261.309C49.2729 261.309 47.9369 259.931 47.9369 284.34V302.463L50.8599 305.386L53.7829 308.309H101.41C151.591 308.309 153.638 308.482 155.316 312.854C155.657 313.744 155.937 327.07 155.937 342.468V370.463L158.86 373.386L161.783 376.309H237.753C304.359 376.309 313.794 376.494 314.299 377.809C314.989 379.609 318.067 379.779 319.737 378.109C323.041 374.805 318.483 369.6 315.025 372.729C313.467 374.14 305.165 374.309 237.608 374.309C163.27 374.309 161.902 374.274 159.937 372.309C158.035 370.407 157.937 368.975 157.935 343.059C157.934 312.056 157.499 309.853 150.937 307.615C148.432 306.761 134.153 306.406 100.687 306.365C55.3099 306.311 53.8779 306.25 51.9369 304.309C50.0959 302.468 49.9369 300.975 49.9349 285.559C49.9339 271.61 49.6409 268.226 48.1849 265.323C45.4489 259.868 43.3939 259.34 24.8089 259.324C11.2619 259.312 7.95087 259.031 6.93687 257.809C5.33587 255.88 3.48387 255.905 1.50787 257.88ZM254.285 301.927C252.474 306.283 251.693 307.065 248.075 308.149C245.799 308.831 243.937 309.75 243.937 310.191C243.937 310.632 245.776 311.543 248.023 312.217C251.543 313.271 252.412 314.129 254.305 318.419L256.503 323.398L258.541 318.572C260.287 314.441 261.181 313.549 264.758 312.368C267.057 311.609 268.937 310.629 268.937 310.189C268.937 309.749 267.091 308.836 264.835 308.16C261.288 307.098 260.436 306.255 258.544 301.938L256.355 296.944L254.285 301.927ZM421.937 321.774C421.937 341.637 421.874 342.272 419.805 343.38C417.86 344.42 416.377 343.226 402.915 329.788C393.359 320.247 387.728 315.32 386.937 315.809C386.12 316.314 390.585 321.441 400.435 331.307C420.235 351.14 420.566 350.309 392.87 350.309C374.93 350.309 371.937 350.523 371.937 351.809C371.937 353.095 374.93 353.309 392.87 353.309C420.566 353.309 420.235 352.478 400.435 372.311C390.585 382.177 386.12 387.304 386.937 387.809C387.727 388.297 393.326 383.432 402.797 374.027C415.771 361.145 417.693 359.59 419.687 360.367C421.921 361.238 421.937 361.392 421.937 382.277C421.937 395.632 422.302 403.309 422.937 403.309C423.572 403.309 423.937 395.654 423.937 382.344C423.937 361.97 423.997 361.347 426.069 360.238C428.013 359.198 429.488 360.382 442.831 373.703C450.878 381.736 457.793 388.309 458.199 388.309C460.629 388.309 457.385 384.279 444.829 371.7C425.724 352.562 425.392 353.309 453.004 353.309C470.944 353.309 473.937 353.095 473.937 351.809C473.937 350.523 470.944 350.309 453.004 350.309C425.308 350.309 425.639 351.14 445.439 331.307C455.289 321.441 459.754 316.314 458.937 315.809C458.147 315.321 452.554 320.204 443.077 329.659C423.171 349.517 423.937 349.816 423.937 322.192C423.937 308.937 423.572 301.309 422.937 301.309C422.303 301.309 421.937 308.797 421.937 321.774Z" fill="black"/>
</svg>
