<svg xmlns="http://www.w3.org/2000/svg" width="120" height="40" viewBox="0 0 120 40" fill="none"><path d="M21.0968 8.75C25.6162 8.75007 29.3549 11.7861 30.8573 15.9124C31.6715 15.8905 32.4877 15.997 33.2744 16.2327C34.5795 16.6237 35.7572 17.3546 36.6868 18.35C37.6164 19.3455 38.2641 20.5699 38.5631 21.8983C38.8621 23.2267 38.8015 24.6107 38.3874 25.9079C37.9733 27.205 37.2211 28.3685 36.2081 29.2791C35.195 30.1896 33.9575 30.815 32.6232 31.0908C31.2888 31.3665 29.905 31.2829 28.6135 30.8491C27.8206 30.5828 27.08 30.19 26.4188 29.6892C24.866 30.674 23.048 31.2499 21.0968 31.2499H8.4371C4.33506 31.2499 1.25 27.6773 1.25 23.5795C1.25 19.4817 4.33506 15.9091 8.4371 15.9091H8.93515C9.28945 15.9091 9.63862 15.9352 9.98053 15.985C11.7057 11.7846 15.6183 8.75004 20.2991 8.75H21.0968ZM16.621 27.8408H21.0968C22.7158 27.8408 24.219 27.2367 25.4287 26.1929C27.0739 24.7734 28.164 22.545 28.164 20C28.164 19.3621 28.0954 18.7443 27.9669 18.1543C27.1972 14.6179 24.3311 12.1592 21.0968 12.1591H20.2991C17.1929 12.1591 14.4083 14.1863 13.1446 17.2487C15.2693 18.7351 16.621 21.2908 16.621 24.1222V27.8408ZM4.65911 23.5795C4.65911 26.0714 6.48335 27.8408 8.4371 27.8408H13.2119V24.1222C13.2119 21.9949 11.994 20.2758 10.426 19.6184C9.96172 19.4238 9.46024 19.3181 8.93515 19.3181H8.4371C6.48335 19.3181 4.65911 21.0875 4.65911 23.5795ZM31.5731 20C31.5731 22.7837 30.6283 25.3513 29.0429 27.3315C29.2528 27.4438 29.4712 27.5414 29.6988 27.6178C30.4183 27.8595 31.1898 27.906 31.9333 27.7523C32.6769 27.5986 33.3655 27.2499 33.9289 26.7435C34.4922 26.2372 34.9103 25.591 35.14 24.8712C35.3698 24.1515 35.4031 23.3835 35.2373 22.6467C35.0714 21.9099 34.7119 21.2297 34.1952 20.6765C33.6784 20.1231 33.0227 19.7164 32.2956 19.4986C32.0531 19.426 31.8054 19.3769 31.5558 19.3481C31.5673 19.564 31.5731 19.7813 31.5731 20Z" fill="#0095FF"></path><path d="M50.9555 28.171C49.5516 28.171 48.3059 27.8391 47.2186 27.1753C46.145 26.4971 45.2985 25.5736 44.6791 24.4048C44.0597 23.2215 43.75 21.8651 43.75 20.3355C43.75 18.8059 44.0528 17.4567 44.6584 16.2879C45.2778 15.1046 46.1243 14.1811 47.1979 13.5173C48.2853 12.8391 49.5241 12.5 50.9142 12.5C51.8915 12.5 52.7999 12.6804 53.6395 13.0411C54.4792 13.4019 55.2155 13.9069 55.8487 14.5563C56.4956 15.1912 56.9911 15.9271 57.3352 16.7641L54.9196 17.7381C54.6856 17.1898 54.3622 16.7136 53.9492 16.3095C53.5501 15.8911 53.089 15.5736 52.5659 15.3571C52.0567 15.1263 51.5061 15.0108 50.9142 15.0108C50.0471 15.0108 49.2694 15.2417 48.5812 15.7035C47.9068 16.1508 47.3769 16.7713 46.9915 17.5649C46.6061 18.3586 46.4134 19.2821 46.4134 20.3355C46.4134 21.3745 46.6061 22.298 46.9915 23.1061C47.3906 23.9141 47.9343 24.5491 48.6225 25.0108C49.3107 25.4582 50.0953 25.6818 50.9762 25.6818C51.5818 25.6818 52.1393 25.5664 52.6485 25.3355C53.1578 25.0902 53.612 24.7511 54.0112 24.3182C54.4103 23.8709 54.7338 23.3658 54.9816 22.803L57.3765 23.7771C57.0324 24.6429 56.5438 25.4076 55.9106 26.0714C55.2775 26.7352 54.5342 27.2547 53.6808 27.6299C52.8275 27.9906 51.919 28.171 50.9555 28.171Z" fill="#0E121B"></path><path d="M58.7681 27.9113V12.7597H61.2663V27.9113H58.7681Z" fill="#0E121B"></path><path d="M68.1411 28.171C67.095 28.171 66.1659 27.9329 65.3539 27.4567C64.5555 26.9661 63.9224 26.2951 63.4544 25.4437C63.0002 24.5924 62.7731 23.6111 62.7731 22.5C62.7731 21.3889 63.0002 20.4076 63.4544 19.5563C63.9086 18.7049 64.5349 18.0411 65.3332 17.5649C66.1453 17.0743 67.0675 16.829 68.0998 16.829C69.1459 16.829 70.0681 17.0743 70.8664 17.5649C71.6785 18.0411 72.3116 18.7049 72.7659 19.5563C73.2201 20.4076 73.4472 21.3889 73.4472 22.5C73.4472 23.6111 73.2201 24.5924 72.7659 25.4437C72.3116 26.2951 71.6854 26.9661 70.887 27.4567C70.0887 27.9329 69.1734 28.171 68.1411 28.171ZM68.1411 25.7468C68.6779 25.7468 69.1528 25.6097 69.5657 25.3355C69.9786 25.0469 70.3021 24.6645 70.5361 24.1883C70.77 23.6977 70.887 23.1349 70.887 22.5C70.887 21.8651 70.7632 21.3095 70.5154 20.8333C70.2814 20.3427 69.9511 19.9603 69.5244 19.6861C69.1115 19.3975 68.6366 19.2532 68.0998 19.2532C67.563 19.2532 67.0881 19.3903 66.6752 19.6645C66.2623 19.9387 65.9319 20.3211 65.6842 20.8117C65.4502 21.3023 65.3332 21.8651 65.3332 22.5C65.3332 23.1349 65.4502 23.6977 65.6842 24.1883C65.9319 24.6645 66.2692 25.0469 66.6959 25.3355C67.1225 25.6097 67.6043 25.7468 68.1411 25.7468Z" fill="#0E121B"></path><path d="M81.8053 27.9113L81.6607 25.9199V17.0887H84.1796V27.9113H81.8053ZM74.7443 22.6299V17.0887H77.2424V22.6299H74.7443ZM77.2424 22.6299C77.2424 23.4235 77.3319 24.044 77.5108 24.4913C77.6898 24.9242 77.9375 25.2345 78.2541 25.4221C78.5707 25.5952 78.9354 25.689 79.3484 25.7035C80.0916 25.7035 80.6628 25.4509 81.062 24.9459C81.4612 24.4408 81.6607 23.7121 81.6607 22.7597H82.5485C82.5485 23.8997 82.3834 24.8737 82.053 25.6818C81.7364 26.4899 81.2822 27.1104 80.6904 27.5433C80.1123 27.9618 79.4241 28.171 78.6257 28.171C77.8137 28.171 77.1117 27.9978 76.5198 27.6515C75.9417 27.3052 75.5013 26.7713 75.1985 26.0498C74.8957 25.3139 74.7443 24.3687 74.7443 23.2143V22.6299H77.2424Z" fill="#0E121B"></path><path d="M93.6392 27.9113L93.5153 25.8983V12.7597H96.0341V27.9113H93.6392ZM90.3358 28.171C89.3998 28.171 88.5809 27.9401 87.8789 27.4784C87.1769 27.0166 86.6332 26.36 86.2478 25.5087C85.8624 24.6429 85.6697 23.64 85.6697 22.5C85.6697 21.3456 85.8624 20.3427 86.2478 19.4913C86.6332 18.64 87.1769 17.9834 87.8789 17.5216C88.5809 17.0599 89.3998 16.829 90.3358 16.829C91.2029 16.829 91.9393 17.0599 92.5449 17.5216C93.1643 17.9834 93.6323 18.64 93.9489 19.4913C94.2792 20.3427 94.4444 21.3456 94.4444 22.5C94.4444 23.64 94.2792 24.6429 93.9489 25.5087C93.6323 26.36 93.1643 27.0166 92.5449 27.4784C91.9393 27.9401 91.2029 28.171 90.3358 28.171ZM90.9758 25.7468C91.4713 25.7468 91.9118 25.6097 92.2972 25.3355C92.6826 25.0613 92.9785 24.6789 93.185 24.1883C93.4052 23.6977 93.5153 23.1349 93.5153 22.5C93.5153 21.8651 93.4052 21.3023 93.185 20.8117C92.9785 20.3211 92.6826 19.9387 92.2972 19.6645C91.9118 19.3903 91.4644 19.2532 90.9552 19.2532C90.4321 19.2532 89.971 19.3903 89.5719 19.6645C89.1727 19.9387 88.8561 20.3211 88.6221 20.8117C88.4019 21.3023 88.2849 21.8651 88.2712 22.5C88.2849 23.1349 88.4019 23.6977 88.6221 24.1883C88.8561 24.6789 89.1727 25.0613 89.5719 25.3355C89.9848 25.6097 90.4528 25.7468 90.9758 25.7468Z" fill="#0E121B"></path><path d="M97.5732 27.9113V25.9632L102.859 19.2749H97.5732V17.0887H106.017V18.9935L100.711 25.7251H106.038V27.9113H97.5732Z" fill="#0E121B"></path><path d="M110.244 32.5C109.886 32.5 109.494 32.4278 109.067 32.2835C108.654 32.1392 108.269 31.9733 107.911 31.7857L108.84 29.6212C109.088 29.7655 109.315 29.8737 109.521 29.9459C109.741 30.018 109.92 30.0541 110.058 30.0541C110.361 30.0541 110.622 29.9675 110.842 29.7944C111.076 29.6356 111.262 29.3831 111.4 29.0368L112.618 26.0498L116.004 17.0887H118.75L114.022 28.9502C113.733 29.6573 113.437 30.2778 113.134 30.8117C112.831 31.3456 112.453 31.7569 111.999 32.0455C111.544 32.3485 110.959 32.5 110.244 32.5ZM111.937 27.9113L107.271 17.0887H110.017L113.547 26.0498L114.352 27.9113H111.937Z" fill="#0E121B"></path></svg>