<svg width="248" height="39" viewBox="0 0 248 39" fill="none" xmlns="http://www.w3.org/2000/svg">
<path d="M60.4514 6.75H68.702L79.8773 33.1502H72.9395L70.4646 27.1504H58.7269L56.4392 33.1502H49.8389L60.4514 6.75ZM64.3518 10.8752C63.789 12.8254 62.3641 16.8382 60.3768 22.0127H68.702C66.2268 15.9754 65.0273 12.8625 64.3893 10.8752H64.3518Z" fill="#B82025"/>
<path d="M89.064 5.21289H82.9512V33.1513H89.064V5.21289Z" fill="#B82025"/>
<path d="M96.1886 18.2256H92.7012V13.7623H96.1883V8.0625H102.339V13.7623H106.839V18.2256H102.339V26.4006C102.339 28.0509 102.676 28.801 104.551 28.801C105.076 28.801 105.676 28.801 106.201 28.6883V32.8883C105.151 33.1893 103.763 33.3006 102.339 33.3006C97.5761 33.3006 96.1883 31.2381 96.1883 27.4507V18.2256H96.1886Z" fill="#B82025"/>
<path d="M110.139 13.7627H116.252V24.6009C116.252 27.1892 117.189 28.913 119.739 28.913C122.701 28.913 123.826 27.1511 123.826 22.7256V13.7627H129.939V27.5249C129.939 29.3628 129.939 31.2755 129.976 33.1505H123.976C123.901 32.6255 123.901 31.7256 123.863 30.901C122.889 32.4008 121.426 33.6755 117.338 33.6755C113.289 33.6755 110.138 31.312 110.138 25.6128V13.7627H110.139Z" fill="#B82025"/>
<path d="M146.627 19.2384C146.327 18.3385 145.652 17.2885 142.914 17.2885C140.589 17.2885 140.177 18.1884 140.177 18.8632C140.177 19.6879 140.814 20.1751 144.414 20.7007C152.289 21.9009 153.302 24.5256 153.302 27.2262C153.302 30.7511 150.64 33.6758 143.552 33.6758C138.264 33.6758 134.102 31.4263 133.502 27.1881H139.576C140.065 28.5762 141.338 29.4757 143.964 29.4757C146.588 29.4757 147.302 28.6886 147.302 27.7512C147.302 26.6631 146.476 26.1381 142.577 25.6131C135.188 24.5631 134.176 21.8625 134.176 19.5013C134.176 16.5385 136.389 13.2383 143.139 13.2383C149.964 13.2383 152.364 16.4626 152.627 19.2387H146.627V19.2384Z" fill="#B82025"/>
<path d="M156.977 33.1502V6.75H163.389V16.6506H175.539V6.75H181.952V33.1502H175.539V21.788H163.389V33.1502H156.977Z" fill="black"/>
<path d="M197.702 13.2378C205.277 13.2378 208.802 18.6377 208.802 23.4373C208.802 29.4 204.677 33.6746 197.477 33.6746C190.239 33.6746 186.564 28.8382 186.564 23.4373C186.564 18.1501 190.39 13.2378 197.702 13.2378ZM202.502 23.5503C202.502 20.6254 201.04 17.8883 197.627 17.8883C194.289 17.8883 192.789 20.4755 192.789 23.4377C192.789 26.4763 194.476 29.0633 197.664 29.0633C200.965 29.0629 202.502 26.5125 202.502 23.5503Z" fill="black"/>
<path d="M224.627 19.2384C224.327 18.3385 223.652 17.2885 220.914 17.2885C218.588 17.2885 218.177 18.1884 218.177 18.8632C218.177 19.6879 218.814 20.1751 222.414 20.7007C230.289 21.9009 231.301 24.5256 231.301 27.2262C231.301 30.7511 228.639 33.6758 221.551 33.6758C216.264 33.6758 212.1 31.4263 211.501 27.1881H217.576C218.063 28.5762 219.339 29.4757 221.964 29.4757C224.589 29.4757 225.301 28.6886 225.301 27.7512C225.301 26.6631 224.477 26.1381 220.575 25.6131C213.189 24.5631 212.175 21.8625 212.175 19.5013C212.175 16.5385 214.387 13.2383 221.139 13.2383C227.964 13.2383 230.364 16.4626 230.627 19.2387H224.627V19.2384Z" fill="black"/>
<path d="M236.439 18.2256H232.952V13.7623H236.439V8.0625H242.589V13.7623H247.089V18.2256H242.589V26.4006C242.589 28.0509 242.926 28.801 244.802 28.801C245.326 28.801 245.928 28.801 246.452 28.6883V32.8883C245.402 33.1893 244.015 33.3006 242.59 33.3006C237.827 33.3006 236.439 31.2381 236.439 27.4507L236.439 18.2256Z" fill="black"/>
<path d="M5.12285 14.5418C7.80622 13.2134 10.3381 12.9916 10.3381 12.9916C10.4081 10.4548 12.3102 7.87116 16.8908 7.91789C21.7123 7.96761 23.7609 9.73884 24.2482 12.511H34.632C33.5309 2.99396 26.8858 -0.0977542 17.0452 0.00234197C4.92895 0.125971 0.613216 5.94514 1.17667 17.2192C1.17667 17.2192 2.7507 15.7158 5.12285 14.5418Z" fill="#B82025"/>
<path d="M24.3718 14.9111V14.9125H15.8228C8.62385 14.9125 0 17.7612 0 26.9104C0 34.0351 5.84899 38.0565 12.5985 38.0565C14.6167 38.0565 18.0571 37.982 21.6413 38.0565C21.6413 38.0539 21.6413 38.0599 21.642 38.0565H21.641C21.689 38.0579 21.7348 38.0565 21.7835 38.0565C27.9822 38.0565 33.8948 34.5983 34.7513 28.5378C34.7559 28.4761 34.7605 28.4148 34.7652 28.3538C34.7827 28.0993 34.796 27.8438 34.796 27.5856V16.1113C34.796 15.701 34.7854 15.3026 34.7688 14.9111H24.3718ZM24.3718 26.1173C24.3718 28.5421 22.4053 30.5089 19.9795 30.5089H16.2732C13.1239 30.5089 10.6483 28.7851 10.6483 26.0854C10.6483 22.4114 14.3979 21.136 18.2228 21.136H24.3718V26.1173Z" fill="black"/>
</svg>
